<?xml version="1.0" encoding="utf-8" standalone="no"?>
<!DOCTYPE svg PUBLIC "-//W3C//DTD SVG 1.1//EN"
  "http://www.w3.org/Graphics/SVG/1.1/DTD/svg11.dtd">
<svg height="277.314375pt" version="1.1" viewBox="0 0 385.78125 277.314375" width="385.78125pt" xmlns="http://www.w3.org/2000/svg" xmlns:xlink="http://www.w3.org/1999/xlink">
 <metadata>
  <rdf:RDF xmlns:cc="http://creativecommons.org/ns#" xmlns:dc="http://purl.org/dc/elements/1.1/" xmlns:rdf="http://www.w3.org/1999/02/22-rdf-syntax-ns#">
   <cc:Work>
    <dc:type rdf:resource="http://purl.org/dc/dcmitype/StillImage"/>
    <dc:date>2021-12-24T12:01:12.941608</dc:date>
    <dc:format>image/svg+xml</dc:format>
    <dc:creator>
     <cc:Agent>
      <dc:title>Matplotlib v3.4.3, https://matplotlib.org/</dc:title>
     </cc:Agent>
    </dc:creator>
   </cc:Work>
  </rdf:RDF>
 </metadata>
 <defs>
  <style type="text/css">*{stroke-linecap:butt;stroke-linejoin:round;}</style>
 </defs>
 <g id="figure_1">
  <g id="patch_1">
   <path d="M 0 277.314375 
L 385.78125 277.314375 
L 385.78125 0 
L 0 0 
z
" style="fill:none;"/>
  </g>
  <g id="axes_1">
   <g id="patch_2">
    <path d="M 43.78125 239.758125 
L 378.58125 239.758125 
L 378.58125 22.318125 
L 43.78125 22.318125 
z
" style="fill:#ffffff;"/>
   </g>
   <g id="matplotlib.axis_1">
    <g id="xtick_1">
     <g id="line2d_1">
      <defs>
       <path d="M 0 0 
L 0 3.5 
" id="m4958d59556" style="stroke:#000000;stroke-width:0.8;"/>
      </defs>
      <g>
       <use style="stroke:#000000;stroke-width:0.8;" x="58.999432" xlink:href="#m4958d59556" y="239.758125"/>
      </g>
     </g>
     <g id="text_1">
      <!-- 0 -->
      <g transform="translate(55.818182 254.356562)scale(0.1 -0.1)">
       <defs>
        <path d="M 2034 4250 
Q 1547 4250 1301 3770 
Q 1056 3291 1056 2328 
Q 1056 1369 1301 889 
Q 1547 409 2034 409 
Q 2525 409 2770 889 
Q 3016 1369 3016 2328 
Q 3016 3291 2770 3770 
Q 2525 4250 2034 4250 
z
M 2034 4750 
Q 2819 4750 3233 4129 
Q 3647 3509 3647 2328 
Q 3647 1150 3233 529 
Q 2819 -91 2034 -91 
Q 1250 -91 836 529 
Q 422 1150 422 2328 
Q 422 3509 836 4129 
Q 1250 4750 2034 4750 
z
" id="DejaVuSans-30" transform="scale(0.015625)"/>
       </defs>
       <use xlink:href="#DejaVuSans-30"/>
      </g>
     </g>
    </g>
    <g id="xtick_2">
     <g id="line2d_2">
      <g>
       <use style="stroke:#000000;stroke-width:0.8;" x="119.629638" xlink:href="#m4958d59556" y="239.758125"/>
      </g>
     </g>
     <g id="text_2">
      <!-- 100 -->
      <g transform="translate(110.085888 254.356562)scale(0.1 -0.1)">
       <defs>
        <path d="M 794 531 
L 1825 531 
L 1825 4091 
L 703 3866 
L 703 4441 
L 1819 4666 
L 2450 4666 
L 2450 531 
L 3481 531 
L 3481 0 
L 794 0 
L 794 531 
z
" id="DejaVuSans-31" transform="scale(0.015625)"/>
       </defs>
       <use xlink:href="#DejaVuSans-31"/>
       <use x="63.623047" xlink:href="#DejaVuSans-30"/>
       <use x="127.246094" xlink:href="#DejaVuSans-30"/>
      </g>
     </g>
    </g>
    <g id="xtick_3">
     <g id="line2d_3">
      <g>
       <use style="stroke:#000000;stroke-width:0.8;" x="180.259845" xlink:href="#m4958d59556" y="239.758125"/>
      </g>
     </g>
     <g id="text_3">
      <!-- 200 -->
      <g transform="translate(170.716095 254.356562)scale(0.1 -0.1)">
       <defs>
        <path d="M 1228 531 
L 3431 531 
L 3431 0 
L 469 0 
L 469 531 
Q 828 903 1448 1529 
Q 2069 2156 2228 2338 
Q 2531 2678 2651 2914 
Q 2772 3150 2772 3378 
Q 2772 3750 2511 3984 
Q 2250 4219 1831 4219 
Q 1534 4219 1204 4116 
Q 875 4013 500 3803 
L 500 4441 
Q 881 4594 1212 4672 
Q 1544 4750 1819 4750 
Q 2544 4750 2975 4387 
Q 3406 4025 3406 3419 
Q 3406 3131 3298 2873 
Q 3191 2616 2906 2266 
Q 2828 2175 2409 1742 
Q 1991 1309 1228 531 
z
" id="DejaVuSans-32" transform="scale(0.015625)"/>
       </defs>
       <use xlink:href="#DejaVuSans-32"/>
       <use x="63.623047" xlink:href="#DejaVuSans-30"/>
       <use x="127.246094" xlink:href="#DejaVuSans-30"/>
      </g>
     </g>
    </g>
    <g id="xtick_4">
     <g id="line2d_4">
      <g>
       <use style="stroke:#000000;stroke-width:0.8;" x="240.890051" xlink:href="#m4958d59556" y="239.758125"/>
      </g>
     </g>
     <g id="text_4">
      <!-- 300 -->
      <g transform="translate(231.346301 254.356562)scale(0.1 -0.1)">
       <defs>
        <path d="M 2597 2516 
Q 3050 2419 3304 2112 
Q 3559 1806 3559 1356 
Q 3559 666 3084 287 
Q 2609 -91 1734 -91 
Q 1441 -91 1130 -33 
Q 819 25 488 141 
L 488 750 
Q 750 597 1062 519 
Q 1375 441 1716 441 
Q 2309 441 2620 675 
Q 2931 909 2931 1356 
Q 2931 1769 2642 2001 
Q 2353 2234 1838 2234 
L 1294 2234 
L 1294 2753 
L 1863 2753 
Q 2328 2753 2575 2939 
Q 2822 3125 2822 3475 
Q 2822 3834 2567 4026 
Q 2313 4219 1838 4219 
Q 1578 4219 1281 4162 
Q 984 4106 628 3988 
L 628 4550 
Q 988 4650 1302 4700 
Q 1616 4750 1894 4750 
Q 2613 4750 3031 4423 
Q 3450 4097 3450 3541 
Q 3450 3153 3228 2886 
Q 3006 2619 2597 2516 
z
" id="DejaVuSans-33" transform="scale(0.015625)"/>
       </defs>
       <use xlink:href="#DejaVuSans-33"/>
       <use x="63.623047" xlink:href="#DejaVuSans-30"/>
       <use x="127.246094" xlink:href="#DejaVuSans-30"/>
      </g>
     </g>
    </g>
    <g id="xtick_5">
     <g id="line2d_5">
      <g>
       <use style="stroke:#000000;stroke-width:0.8;" x="301.520258" xlink:href="#m4958d59556" y="239.758125"/>
      </g>
     </g>
     <g id="text_5">
      <!-- 400 -->
      <g transform="translate(291.976508 254.356562)scale(0.1 -0.1)">
       <defs>
        <path d="M 2419 4116 
L 825 1625 
L 2419 1625 
L 2419 4116 
z
M 2253 4666 
L 3047 4666 
L 3047 1625 
L 3713 1625 
L 3713 1100 
L 3047 1100 
L 3047 0 
L 2419 0 
L 2419 1100 
L 313 1100 
L 313 1709 
L 2253 4666 
z
" id="DejaVuSans-34" transform="scale(0.015625)"/>
       </defs>
       <use xlink:href="#DejaVuSans-34"/>
       <use x="63.623047" xlink:href="#DejaVuSans-30"/>
       <use x="127.246094" xlink:href="#DejaVuSans-30"/>
      </g>
     </g>
    </g>
    <g id="xtick_6">
     <g id="line2d_6">
      <g>
       <use style="stroke:#000000;stroke-width:0.8;" x="362.150464" xlink:href="#m4958d59556" y="239.758125"/>
      </g>
     </g>
     <g id="text_6">
      <!-- 500 -->
      <g transform="translate(352.606714 254.356562)scale(0.1 -0.1)">
       <defs>
        <path d="M 691 4666 
L 3169 4666 
L 3169 4134 
L 1269 4134 
L 1269 2991 
Q 1406 3038 1543 3061 
Q 1681 3084 1819 3084 
Q 2600 3084 3056 2656 
Q 3513 2228 3513 1497 
Q 3513 744 3044 326 
Q 2575 -91 1722 -91 
Q 1428 -91 1123 -41 
Q 819 9 494 109 
L 494 744 
Q 775 591 1075 516 
Q 1375 441 1709 441 
Q 2250 441 2565 725 
Q 2881 1009 2881 1497 
Q 2881 1984 2565 2268 
Q 2250 2553 1709 2553 
Q 1456 2553 1204 2497 
Q 953 2441 691 2322 
L 691 4666 
z
" id="DejaVuSans-35" transform="scale(0.015625)"/>
       </defs>
       <use xlink:href="#DejaVuSans-35"/>
       <use x="63.623047" xlink:href="#DejaVuSans-30"/>
       <use x="127.246094" xlink:href="#DejaVuSans-30"/>
      </g>
     </g>
    </g>
    <g id="text_7">
     <!-- Time value (day) -->
     <g transform="translate(169.0125 268.034687)scale(0.1 -0.1)">
      <defs>
       <path d="M -19 4666 
L 3928 4666 
L 3928 4134 
L 2272 4134 
L 2272 0 
L 1638 0 
L 1638 4134 
L -19 4134 
L -19 4666 
z
" id="DejaVuSans-54" transform="scale(0.015625)"/>
       <path d="M 603 3500 
L 1178 3500 
L 1178 0 
L 603 0 
L 603 3500 
z
M 603 4863 
L 1178 4863 
L 1178 4134 
L 603 4134 
L 603 4863 
z
" id="DejaVuSans-69" transform="scale(0.015625)"/>
       <path d="M 3328 2828 
Q 3544 3216 3844 3400 
Q 4144 3584 4550 3584 
Q 5097 3584 5394 3201 
Q 5691 2819 5691 2113 
L 5691 0 
L 5113 0 
L 5113 2094 
Q 5113 2597 4934 2840 
Q 4756 3084 4391 3084 
Q 3944 3084 3684 2787 
Q 3425 2491 3425 1978 
L 3425 0 
L 2847 0 
L 2847 2094 
Q 2847 2600 2669 2842 
Q 2491 3084 2119 3084 
Q 1678 3084 1418 2786 
Q 1159 2488 1159 1978 
L 1159 0 
L 581 0 
L 581 3500 
L 1159 3500 
L 1159 2956 
Q 1356 3278 1631 3431 
Q 1906 3584 2284 3584 
Q 2666 3584 2933 3390 
Q 3200 3197 3328 2828 
z
" id="DejaVuSans-6d" transform="scale(0.015625)"/>
       <path d="M 3597 1894 
L 3597 1613 
L 953 1613 
Q 991 1019 1311 708 
Q 1631 397 2203 397 
Q 2534 397 2845 478 
Q 3156 559 3463 722 
L 3463 178 
Q 3153 47 2828 -22 
Q 2503 -91 2169 -91 
Q 1331 -91 842 396 
Q 353 884 353 1716 
Q 353 2575 817 3079 
Q 1281 3584 2069 3584 
Q 2775 3584 3186 3129 
Q 3597 2675 3597 1894 
z
M 3022 2063 
Q 3016 2534 2758 2815 
Q 2500 3097 2075 3097 
Q 1594 3097 1305 2825 
Q 1016 2553 972 2059 
L 3022 2063 
z
" id="DejaVuSans-65" transform="scale(0.015625)"/>
       <path id="DejaVuSans-20" transform="scale(0.015625)"/>
       <path d="M 191 3500 
L 800 3500 
L 1894 563 
L 2988 3500 
L 3597 3500 
L 2284 0 
L 1503 0 
L 191 3500 
z
" id="DejaVuSans-76" transform="scale(0.015625)"/>
       <path d="M 2194 1759 
Q 1497 1759 1228 1600 
Q 959 1441 959 1056 
Q 959 750 1161 570 
Q 1363 391 1709 391 
Q 2188 391 2477 730 
Q 2766 1069 2766 1631 
L 2766 1759 
L 2194 1759 
z
M 3341 1997 
L 3341 0 
L 2766 0 
L 2766 531 
Q 2569 213 2275 61 
Q 1981 -91 1556 -91 
Q 1019 -91 701 211 
Q 384 513 384 1019 
Q 384 1609 779 1909 
Q 1175 2209 1959 2209 
L 2766 2209 
L 2766 2266 
Q 2766 2663 2505 2880 
Q 2244 3097 1772 3097 
Q 1472 3097 1187 3025 
Q 903 2953 641 2809 
L 641 3341 
Q 956 3463 1253 3523 
Q 1550 3584 1831 3584 
Q 2591 3584 2966 3190 
Q 3341 2797 3341 1997 
z
" id="DejaVuSans-61" transform="scale(0.015625)"/>
       <path d="M 603 4863 
L 1178 4863 
L 1178 0 
L 603 0 
L 603 4863 
z
" id="DejaVuSans-6c" transform="scale(0.015625)"/>
       <path d="M 544 1381 
L 544 3500 
L 1119 3500 
L 1119 1403 
Q 1119 906 1312 657 
Q 1506 409 1894 409 
Q 2359 409 2629 706 
Q 2900 1003 2900 1516 
L 2900 3500 
L 3475 3500 
L 3475 0 
L 2900 0 
L 2900 538 
Q 2691 219 2414 64 
Q 2138 -91 1772 -91 
Q 1169 -91 856 284 
Q 544 659 544 1381 
z
M 1991 3584 
L 1991 3584 
z
" id="DejaVuSans-75" transform="scale(0.015625)"/>
       <path d="M 1984 4856 
Q 1566 4138 1362 3434 
Q 1159 2731 1159 2009 
Q 1159 1288 1364 580 
Q 1569 -128 1984 -844 
L 1484 -844 
Q 1016 -109 783 600 
Q 550 1309 550 2009 
Q 550 2706 781 3412 
Q 1013 4119 1484 4856 
L 1984 4856 
z
" id="DejaVuSans-28" transform="scale(0.015625)"/>
       <path d="M 2906 2969 
L 2906 4863 
L 3481 4863 
L 3481 0 
L 2906 0 
L 2906 525 
Q 2725 213 2448 61 
Q 2172 -91 1784 -91 
Q 1150 -91 751 415 
Q 353 922 353 1747 
Q 353 2572 751 3078 
Q 1150 3584 1784 3584 
Q 2172 3584 2448 3432 
Q 2725 3281 2906 2969 
z
M 947 1747 
Q 947 1113 1208 752 
Q 1469 391 1925 391 
Q 2381 391 2643 752 
Q 2906 1113 2906 1747 
Q 2906 2381 2643 2742 
Q 2381 3103 1925 3103 
Q 1469 3103 1208 2742 
Q 947 2381 947 1747 
z
" id="DejaVuSans-64" transform="scale(0.015625)"/>
       <path d="M 2059 -325 
Q 1816 -950 1584 -1140 
Q 1353 -1331 966 -1331 
L 506 -1331 
L 506 -850 
L 844 -850 
Q 1081 -850 1212 -737 
Q 1344 -625 1503 -206 
L 1606 56 
L 191 3500 
L 800 3500 
L 1894 763 
L 2988 3500 
L 3597 3500 
L 2059 -325 
z
" id="DejaVuSans-79" transform="scale(0.015625)"/>
       <path d="M 513 4856 
L 1013 4856 
Q 1481 4119 1714 3412 
Q 1947 2706 1947 2009 
Q 1947 1309 1714 600 
Q 1481 -109 1013 -844 
L 513 -844 
Q 928 -128 1133 580 
Q 1338 1288 1338 2009 
Q 1338 2731 1133 3434 
Q 928 4138 513 4856 
z
" id="DejaVuSans-29" transform="scale(0.015625)"/>
      </defs>
      <use xlink:href="#DejaVuSans-54"/>
      <use x="57.958984" xlink:href="#DejaVuSans-69"/>
      <use x="85.742188" xlink:href="#DejaVuSans-6d"/>
      <use x="183.154297" xlink:href="#DejaVuSans-65"/>
      <use x="244.677734" xlink:href="#DejaVuSans-20"/>
      <use x="276.464844" xlink:href="#DejaVuSans-76"/>
      <use x="335.644531" xlink:href="#DejaVuSans-61"/>
      <use x="396.923828" xlink:href="#DejaVuSans-6c"/>
      <use x="424.707031" xlink:href="#DejaVuSans-75"/>
      <use x="488.085938" xlink:href="#DejaVuSans-65"/>
      <use x="549.609375" xlink:href="#DejaVuSans-20"/>
      <use x="581.396484" xlink:href="#DejaVuSans-28"/>
      <use x="620.410156" xlink:href="#DejaVuSans-64"/>
      <use x="683.886719" xlink:href="#DejaVuSans-61"/>
      <use x="745.166016" xlink:href="#DejaVuSans-79"/>
      <use x="804.345703" xlink:href="#DejaVuSans-29"/>
     </g>
    </g>
   </g>
   <g id="matplotlib.axis_2">
    <g id="ytick_1">
     <g id="line2d_7">
      <defs>
       <path d="M 0 0 
L -3.5 0 
" id="mc6343d0be6" style="stroke:#000000;stroke-width:0.8;"/>
      </defs>
      <g>
       <use style="stroke:#000000;stroke-width:0.8;" x="43.78125" xlink:href="#mc6343d0be6" y="233.925159"/>
      </g>
     </g>
     <g id="text_8">
      <!-- 4.0 -->
      <g transform="translate(20.878125 237.724378)scale(0.1 -0.1)">
       <defs>
        <path d="M 684 794 
L 1344 794 
L 1344 0 
L 684 0 
L 684 794 
z
" id="DejaVuSans-2e" transform="scale(0.015625)"/>
       </defs>
       <use xlink:href="#DejaVuSans-34"/>
       <use x="63.623047" xlink:href="#DejaVuSans-2e"/>
       <use x="95.410156" xlink:href="#DejaVuSans-30"/>
      </g>
     </g>
    </g>
    <g id="ytick_2">
     <g id="line2d_8">
      <g>
       <use style="stroke:#000000;stroke-width:0.8;" x="43.78125" xlink:href="#mc6343d0be6" y="193.418453"/>
      </g>
     </g>
     <g id="text_9">
      <!-- 4.5 -->
      <g transform="translate(20.878125 197.217672)scale(0.1 -0.1)">
       <use xlink:href="#DejaVuSans-34"/>
       <use x="63.623047" xlink:href="#DejaVuSans-2e"/>
       <use x="95.410156" xlink:href="#DejaVuSans-35"/>
      </g>
     </g>
    </g>
    <g id="ytick_3">
     <g id="line2d_9">
      <g>
       <use style="stroke:#000000;stroke-width:0.8;" x="43.78125" xlink:href="#mc6343d0be6" y="152.911746"/>
      </g>
     </g>
     <g id="text_10">
      <!-- 5.0 -->
      <g transform="translate(20.878125 156.710965)scale(0.1 -0.1)">
       <use xlink:href="#DejaVuSans-35"/>
       <use x="63.623047" xlink:href="#DejaVuSans-2e"/>
       <use x="95.410156" xlink:href="#DejaVuSans-30"/>
      </g>
     </g>
    </g>
    <g id="ytick_4">
     <g id="line2d_10">
      <g>
       <use style="stroke:#000000;stroke-width:0.8;" x="43.78125" xlink:href="#mc6343d0be6" y="112.40504"/>
      </g>
     </g>
     <g id="text_11">
      <!-- 5.5 -->
      <g transform="translate(20.878125 116.204259)scale(0.1 -0.1)">
       <use xlink:href="#DejaVuSans-35"/>
       <use x="63.623047" xlink:href="#DejaVuSans-2e"/>
       <use x="95.410156" xlink:href="#DejaVuSans-35"/>
      </g>
     </g>
    </g>
    <g id="ytick_5">
     <g id="line2d_11">
      <g>
       <use style="stroke:#000000;stroke-width:0.8;" x="43.78125" xlink:href="#mc6343d0be6" y="71.898334"/>
      </g>
     </g>
     <g id="text_12">
      <!-- 6.0 -->
      <g transform="translate(20.878125 75.697552)scale(0.1 -0.1)">
       <defs>
        <path d="M 2113 2584 
Q 1688 2584 1439 2293 
Q 1191 2003 1191 1497 
Q 1191 994 1439 701 
Q 1688 409 2113 409 
Q 2538 409 2786 701 
Q 3034 994 3034 1497 
Q 3034 2003 2786 2293 
Q 2538 2584 2113 2584 
z
M 3366 4563 
L 3366 3988 
Q 3128 4100 2886 4159 
Q 2644 4219 2406 4219 
Q 1781 4219 1451 3797 
Q 1122 3375 1075 2522 
Q 1259 2794 1537 2939 
Q 1816 3084 2150 3084 
Q 2853 3084 3261 2657 
Q 3669 2231 3669 1497 
Q 3669 778 3244 343 
Q 2819 -91 2113 -91 
Q 1303 -91 875 529 
Q 447 1150 447 2328 
Q 447 3434 972 4092 
Q 1497 4750 2381 4750 
Q 2619 4750 2861 4703 
Q 3103 4656 3366 4563 
z
" id="DejaVuSans-36" transform="scale(0.015625)"/>
       </defs>
       <use xlink:href="#DejaVuSans-36"/>
       <use x="63.623047" xlink:href="#DejaVuSans-2e"/>
       <use x="95.410156" xlink:href="#DejaVuSans-30"/>
      </g>
     </g>
    </g>
    <g id="ytick_6">
     <g id="line2d_12">
      <g>
       <use style="stroke:#000000;stroke-width:0.8;" x="43.78125" xlink:href="#mc6343d0be6" y="31.391627"/>
      </g>
     </g>
     <g id="text_13">
      <!-- 6.5 -->
      <g transform="translate(20.878125 35.190846)scale(0.1 -0.1)">
       <use xlink:href="#DejaVuSans-36"/>
       <use x="63.623047" xlink:href="#DejaVuSans-2e"/>
       <use x="95.410156" xlink:href="#DejaVuSans-35"/>
      </g>
     </g>
    </g>
    <g id="text_14">
     <!-- Close price -->
     <g transform="translate(14.798438 158.692812)rotate(-90)scale(0.1 -0.1)">
      <defs>
       <path d="M 4122 4306 
L 4122 3641 
Q 3803 3938 3442 4084 
Q 3081 4231 2675 4231 
Q 1875 4231 1450 3742 
Q 1025 3253 1025 2328 
Q 1025 1406 1450 917 
Q 1875 428 2675 428 
Q 3081 428 3442 575 
Q 3803 722 4122 1019 
L 4122 359 
Q 3791 134 3420 21 
Q 3050 -91 2638 -91 
Q 1578 -91 968 557 
Q 359 1206 359 2328 
Q 359 3453 968 4101 
Q 1578 4750 2638 4750 
Q 3056 4750 3426 4639 
Q 3797 4528 4122 4306 
z
" id="DejaVuSans-43" transform="scale(0.015625)"/>
       <path d="M 1959 3097 
Q 1497 3097 1228 2736 
Q 959 2375 959 1747 
Q 959 1119 1226 758 
Q 1494 397 1959 397 
Q 2419 397 2687 759 
Q 2956 1122 2956 1747 
Q 2956 2369 2687 2733 
Q 2419 3097 1959 3097 
z
M 1959 3584 
Q 2709 3584 3137 3096 
Q 3566 2609 3566 1747 
Q 3566 888 3137 398 
Q 2709 -91 1959 -91 
Q 1206 -91 779 398 
Q 353 888 353 1747 
Q 353 2609 779 3096 
Q 1206 3584 1959 3584 
z
" id="DejaVuSans-6f" transform="scale(0.015625)"/>
       <path d="M 2834 3397 
L 2834 2853 
Q 2591 2978 2328 3040 
Q 2066 3103 1784 3103 
Q 1356 3103 1142 2972 
Q 928 2841 928 2578 
Q 928 2378 1081 2264 
Q 1234 2150 1697 2047 
L 1894 2003 
Q 2506 1872 2764 1633 
Q 3022 1394 3022 966 
Q 3022 478 2636 193 
Q 2250 -91 1575 -91 
Q 1294 -91 989 -36 
Q 684 19 347 128 
L 347 722 
Q 666 556 975 473 
Q 1284 391 1588 391 
Q 1994 391 2212 530 
Q 2431 669 2431 922 
Q 2431 1156 2273 1281 
Q 2116 1406 1581 1522 
L 1381 1569 
Q 847 1681 609 1914 
Q 372 2147 372 2553 
Q 372 3047 722 3315 
Q 1072 3584 1716 3584 
Q 2034 3584 2315 3537 
Q 2597 3491 2834 3397 
z
" id="DejaVuSans-73" transform="scale(0.015625)"/>
       <path d="M 1159 525 
L 1159 -1331 
L 581 -1331 
L 581 3500 
L 1159 3500 
L 1159 2969 
Q 1341 3281 1617 3432 
Q 1894 3584 2278 3584 
Q 2916 3584 3314 3078 
Q 3713 2572 3713 1747 
Q 3713 922 3314 415 
Q 2916 -91 2278 -91 
Q 1894 -91 1617 61 
Q 1341 213 1159 525 
z
M 3116 1747 
Q 3116 2381 2855 2742 
Q 2594 3103 2138 3103 
Q 1681 3103 1420 2742 
Q 1159 2381 1159 1747 
Q 1159 1113 1420 752 
Q 1681 391 2138 391 
Q 2594 391 2855 752 
Q 3116 1113 3116 1747 
z
" id="DejaVuSans-70" transform="scale(0.015625)"/>
       <path d="M 2631 2963 
Q 2534 3019 2420 3045 
Q 2306 3072 2169 3072 
Q 1681 3072 1420 2755 
Q 1159 2438 1159 1844 
L 1159 0 
L 581 0 
L 581 3500 
L 1159 3500 
L 1159 2956 
Q 1341 3275 1631 3429 
Q 1922 3584 2338 3584 
Q 2397 3584 2469 3576 
Q 2541 3569 2628 3553 
L 2631 2963 
z
" id="DejaVuSans-72" transform="scale(0.015625)"/>
       <path d="M 3122 3366 
L 3122 2828 
Q 2878 2963 2633 3030 
Q 2388 3097 2138 3097 
Q 1578 3097 1268 2742 
Q 959 2388 959 1747 
Q 959 1106 1268 751 
Q 1578 397 2138 397 
Q 2388 397 2633 464 
Q 2878 531 3122 666 
L 3122 134 
Q 2881 22 2623 -34 
Q 2366 -91 2075 -91 
Q 1284 -91 818 406 
Q 353 903 353 1747 
Q 353 2603 823 3093 
Q 1294 3584 2113 3584 
Q 2378 3584 2631 3529 
Q 2884 3475 3122 3366 
z
" id="DejaVuSans-63" transform="scale(0.015625)"/>
      </defs>
      <use xlink:href="#DejaVuSans-43"/>
      <use x="69.824219" xlink:href="#DejaVuSans-6c"/>
      <use x="97.607422" xlink:href="#DejaVuSans-6f"/>
      <use x="158.789062" xlink:href="#DejaVuSans-73"/>
      <use x="210.888672" xlink:href="#DejaVuSans-65"/>
      <use x="272.412109" xlink:href="#DejaVuSans-20"/>
      <use x="304.199219" xlink:href="#DejaVuSans-70"/>
      <use x="367.675781" xlink:href="#DejaVuSans-72"/>
      <use x="408.789062" xlink:href="#DejaVuSans-69"/>
      <use x="436.572266" xlink:href="#DejaVuSans-63"/>
      <use x="491.552734" xlink:href="#DejaVuSans-65"/>
     </g>
    </g>
   </g>
   <g id="line2d_13">
    <path clip-path="url(#p84a04735de)" d="M 58.999432 110.993145 
L 59.605734 109.195024 
L 60.212036 108.868947 
L 60.818338 105.38825 
L 61.42464 107.007319 
L 62.030942 106.566741 
L 62.637244 107.568809 
L 63.849848 109.108222 
L 64.45615 108.339095 
L 65.062452 108.739497 
L 65.668755 107.412241 
L 66.881359 107.093425 
L 67.487661 107.290633 
L 68.093963 106.990785 
L 68.700265 107.325052 
L 69.306567 104.189245 
L 70.519171 93.17531 
L 71.125473 94.177532 
L 71.731775 93.582047 
L 72.338077 94.014281 
L 72.944379 98.264106 
L 73.550681 96.991124 
L 74.763285 97.77891 
L 75.97589 92.92375 
L 76.582192 92.831269 
L 77.188494 89.331334 
L 77.794796 83.503079 
L 78.401098 66.128603 
L 79.0074 70.906542 
L 79.613702 60.740153 
L 80.220004 69.812998 
L 80.826306 72.589544 
L 81.432608 73.64299 
L 82.03891 73.214851 
L 82.645212 79.393521 
L 83.251514 83.302897 
L 83.857816 85.164178 
L 84.464119 85.594132 
L 85.070421 89.94061 
L 85.676723 93.481493 
L 86.283025 100.97668 
L 86.889327 117.645961 
L 87.495629 119.145161 
L 88.101931 119.057934 
L 88.708233 118.343314 
L 89.314535 119.152655 
L 89.920837 119.664428 
L 90.527139 120.946333 
L 91.133441 121.312586 
L 92.346045 121.211104 
L 92.952347 119.217631 
L 93.558649 119.514195 
L 94.164952 119.6686 
L 94.771254 118.388086 
L 95.377556 118.581662 
L 96.59016 122.878693 
L 97.196462 122.853313 
L 97.802764 124.107984 
L 98.409066 126.456352 
L 99.015368 124.751717 
L 99.62167 124.218234 
L 100.227972 124.661284 
L 100.834274 123.242899 
L 101.440576 124.127453 
L 102.046878 126.083494 
L 103.259483 126.561465 
L 104.472087 128.767713 
L 105.078389 129.032485 
L 105.684691 129.890887 
L 106.290993 131.226256 
L 106.897295 133.00197 
L 107.503597 132.908562 
L 108.109899 135.434785 
L 108.716201 135.278526 
L 109.322503 135.003942 
L 109.928805 136.676051 
L 110.535107 137.891589 
L 111.141409 140.389225 
L 111.747711 141.016115 
L 112.354013 142.509675 
L 112.960316 140.729054 
L 113.566618 141.691951 
L 114.17292 141.169323 
L 114.779222 141.686929 
L 115.385524 141.625005 
L 115.991826 142.420169 
L 116.598128 142.794071 
L 117.20443 142.825052 
L 117.810732 143.640343 
L 118.417034 144.1768 
L 119.023336 144.032169 
L 119.629638 144.222191 
L 120.23594 145.001594 
L 120.842242 146.057087 
L 121.448544 144.973162 
L 122.054847 145.893411 
L 122.661149 146.531813 
L 123.267451 148.238226 
L 123.873753 148.471977 
L 125.086357 146.959488 
L 125.692659 146.935847 
L 126.298961 146.596867 
L 126.905263 146.703563 
L 127.511565 147.455964 
L 128.117867 147.423012 
L 128.724169 147.9417 
L 129.330471 147.737346 
L 129.936773 147.314423 
L 130.543075 146.689038 
L 131.149377 147.213907 
L 131.75568 146.988191 
L 132.361982 148.581957 
L 132.968284 149.503442 
L 133.574586 149.576878 
L 134.180888 150.466957 
L 134.78719 151.121198 
L 135.393492 152.201801 
L 135.999794 151.793557 
L 136.606096 151.580704 
L 137.212398 150.829462 
L 137.8187 150.980468 
L 138.425002 151.499658 
L 139.031304 150.716662 
L 139.637606 150.410711 
L 140.243908 150.806053 
L 141.456513 152.434972 
L 142.062815 153.391031 
L 142.669117 152.707084 
L 143.275419 152.984564 
L 143.881721 152.327735 
L 144.488023 152.173291 
L 145.094325 152.685644 
L 145.700627 152.866897 
L 146.306929 152.906879 
L 146.913231 153.305002 
L 147.519533 153.457128 
L 148.125835 152.74386 
L 148.732137 151.626713 
L 149.338439 149.66256 
L 149.944741 143.399831 
L 150.551044 142.261476 
L 151.157346 142.256261 
L 151.763648 140.94689 
L 152.36995 143.738232 
L 152.976252 143.304917 
L 153.582554 143.873515 
L 154.188856 144.809022 
L 154.795158 146.315175 
L 155.40146 147.056566 
L 156.007762 146.1199 
L 156.614064 146.442732 
L 157.220366 143.85899 
L 159.039272 146.297946 
L 159.645575 146.270944 
L 160.251877 145.785053 
L 160.858179 146.31475 
L 161.464481 146.609615 
L 162.070783 146.346582 
L 162.677085 145.588232 
L 163.283387 145.783624 
L 163.889689 145.044937 
L 164.495991 146.433422 
L 165.102293 146.485187 
L 165.708595 146.748374 
L 166.314897 146.646622 
L 166.921199 146.380267 
L 167.527501 146.249929 
L 168.133803 145.23832 
L 169.346408 145.247089 
L 169.95271 146.250895 
L 170.559012 146.473714 
L 171.165314 146.476341 
L 171.771616 146.635497 
L 172.98422 147.230132 
L 173.590522 147.203284 
L 174.803126 148.0139 
L 176.01573 150.374206 
L 176.622032 150.828729 
L 177.228334 151.551036 
L 177.834636 151.118378 
L 178.440939 151.849493 
L 179.047241 152.765493 
L 179.653543 153.131475 
L 180.259845 152.890886 
L 180.866147 153.250147 
L 181.472449 153.051858 
L 182.078751 153.432984 
L 182.685053 152.839856 
L 183.291355 153.179531 
L 185.716563 157.547951 
L 186.322865 157.662644 
L 186.929167 157.94816 
L 187.535469 157.840999 
L 188.141772 157.499933 
L 188.748074 156.503815 
L 189.354376 156.923068 
L 189.960678 157.727272 
L 191.173282 158.024493 
L 191.779584 157.955886 
L 192.385886 158.062737 
L 192.992188 157.909993 
L 193.59849 158.299115 
L 194.204792 157.971454 
L 194.811094 158.066175 
L 196.023698 158.629789 
L 196.63 159.594656 
L 197.236303 159.202753 
L 197.842605 159.461614 
L 198.448907 158.243294 
L 199.055209 158.220039 
L 200.267813 157.71097 
L 201.480417 155.711857 
L 202.086719 154.059257 
L 202.693021 154.581962 
L 203.299323 155.457477 
L 203.905625 154.226873 
L 204.511927 153.343787 
L 205.724531 153.525735 
L 206.330833 153.659086 
L 206.937136 152.545764 
L 207.543438 151.820405 
L 208.14974 151.393734 
L 208.756042 151.695668 
L 209.362344 151.805571 
L 209.968646 151.623854 
L 210.574948 151.776521 
L 211.787552 151.634323 
L 212.393854 151.953254 
L 213.000156 152.937242 
L 214.21276 154.567707 
L 214.819062 154.691131 
L 215.425364 154.088538 
L 216.031667 154.732311 
L 216.637969 155.770304 
L 217.244271 156.131999 
L 218.456875 154.041873 
L 219.063177 153.759409 
L 219.669479 155.90748 
L 220.275781 156.447299 
L 220.882083 156.323682 
L 221.488385 156.064705 
L 222.700989 156.670002 
L 223.307291 157.104128 
L 223.913593 156.993144 
L 224.519895 155.989492 
L 225.126197 155.974929 
L 225.7325 154.483687 
L 226.338802 154.285514 
L 226.945104 153.296426 
L 227.551406 154.26079 
L 228.76401 151.30021 
L 229.370312 151.491352 
L 229.976614 151.990725 
L 230.582916 152.788787 
L 231.189218 152.896874 
L 231.79552 152.729644 
L 232.401822 152.87752 
L 233.614426 155.478067 
L 234.827031 156.113032 
L 235.433333 156.564464 
L 236.039635 157.553977 
L 236.645937 158.217258 
L 237.252239 158.331294 
L 239.071145 158.37089 
L 239.677447 157.925986 
L 240.890051 156.077724 
L 241.496353 151.123322 
L 242.102655 151.704514 
L 242.708957 148.950953 
L 243.315259 147.489881 
L 243.921561 149.667157 
L 244.527864 148.069257 
L 245.134166 149.238207 
L 245.740468 149.10559 
L 246.34677 151.157703 
L 246.953072 150.704339 
L 247.559374 150.540238 
L 248.165676 148.951725 
L 248.771978 146.298333 
L 249.37828 146.714148 
L 249.984582 148.257116 
L 250.590884 147.640269 
L 251.197186 147.365685 
L 251.803488 146.099851 
L 252.40979 146.371189 
L 253.016092 147.046561 
L 253.622395 147.971948 
L 254.228697 150.221732 
L 254.834999 149.737232 
L 255.441301 150.457454 
L 256.047603 151.664107 
L 259.079113 151.517505 
L 259.685415 152.03627 
L 260.291717 152.147486 
L 260.898019 152.73652 
L 261.504321 152.513739 
L 262.110623 152.749268 
L 262.716925 152.643537 
L 263.323228 152.418902 
L 263.92953 153.022461 
L 264.535832 153.138081 
L 265.142134 152.751238 
L 265.748436 151.931698 
L 266.354738 152.092207 
L 266.96104 152.441115 
L 267.567342 153.350045 
L 268.173644 154.887025 
L 268.779946 155.20781 
L 269.386248 155.298436 
L 269.99255 156.03693 
L 270.598852 155.698259 
L 271.205154 155.168253 
L 271.811456 154.010892 
L 272.417759 151.170374 
L 273.024061 149.2965 
L 273.630363 146.036149 
L 274.236665 145.648843 
L 274.842967 142.824434 
L 275.449269 142.088645 
L 276.055571 142.626107 
L 276.661873 142.105796 
L 277.268175 138.337381 
L 277.874477 139.120377 
L 278.480779 141.382446 
L 279.087081 141.019245 
L 279.693383 141.97117 
L 280.299685 140.46324 
L 280.905987 140.501484 
L 281.512289 141.044354 
L 282.118592 140.903779 
L 282.724894 141.711691 
L 283.331196 140.636496 
L 283.937498 140.361256 
L 284.5438 139.489218 
L 285.150102 140.433842 
L 285.756404 139.491459 
L 286.362706 139.834186 
L 286.969008 137.195974 
L 287.57531 136.322236 
L 288.181612 130.518048 
L 288.787914 128.373376 
L 289.394216 125.322672 
L 290.000518 126.135413 
L 290.60682 127.32163 
L 291.213123 127.635153 
L 291.819425 121.019344 
L 293.032029 118.809233 
L 293.638331 118.187866 
L 294.244633 119.344223 
L 294.850935 121.175758 
L 295.457237 120.232949 
L 296.063539 121.549621 
L 296.669841 121.841472 
L 297.276143 123.07366 
L 297.882445 122.062437 
L 299.095049 128.692307 
L 299.701351 129.286131 
L 300.307653 130.898131 
L 300.913956 131.19145 
L 302.732862 135.631953 
L 303.339164 137.681479 
L 303.945466 139.037283 
L 304.551768 139.752753 
L 305.15807 138.915521 
L 305.764372 139.384994 
L 306.370674 140.837644 
L 306.976976 140.206349 
L 307.583278 141.219079 
L 308.18958 141.529472 
L 308.795882 141.0301 
L 309.402184 141.295682 
L 310.008487 142.949094 
L 310.614789 142.723455 
L 311.221091 143.529822 
L 312.433695 144.275655 
L 313.039997 144.248961 
L 313.646299 143.392414 
L 314.252601 143.352586 
L 314.858903 144.001921 
L 315.465205 143.502935 
L 316.071507 144.480395 
L 316.677809 144.633834 
L 317.284111 146.290954 
L 317.890413 147.35653 
L 318.496715 147.365646 
L 319.103017 145.928062 
L 319.70932 143.724093 
L 320.315622 142.558774 
L 320.921924 140.946697 
L 321.528226 138.401623 
L 322.134528 136.740524 
L 322.74083 136.273408 
L 323.347132 135.340759 
L 323.953434 132.548259 
L 324.559736 132.433604 
L 325.166038 129.528072 
L 325.77234 128.10366 
L 326.378642 125.382549 
L 326.984944 126.181498 
L 328.197548 110.053619 
L 328.803851 93.460246 
L 329.410153 90.727275 
L 330.016455 98.681582 
L 330.622757 79.221655 
L 331.229059 80.871551 
L 331.835361 77.812039 
L 333.047965 47.24021 
L 333.654267 70.142398 
L 334.260569 72.114045 
L 334.866871 54.928471 
L 336.079475 67.37211 
L 336.685777 81.421993 
L 337.292079 91.740739 
L 337.898381 81.621943 
L 338.504684 74.166699 
L 339.110986 76.226037 
L 339.717288 87.816682 
L 340.32359 88.175248 
L 340.929892 97.236272 
L 341.536194 83.226873 
L 342.142496 84.626446 
L 342.748798 88.987216 
L 343.3551 106.380582 
L 343.961402 107.43453 
L 344.567704 112.090243 
L 345.780308 119.41959 
L 346.38661 123.456215 
L 346.992912 128.719696 
L 347.599215 129.569213 
L 348.205517 131.845691 
L 348.811819 133.08997 
L 349.418121 134.651094 
L 350.630725 136.328881 
L 351.237027 137.363591 
L 351.843329 136.81311 
L 352.449631 137.993997 
L 353.055933 137.33543 
L 354.268537 136.72994 
L 354.874839 134.59817 
L 355.481141 135.698011 
L 356.087443 137.704116 
L 356.693745 138.733997 
L 357.300048 139.284362 
L 357.90635 137.310165 
L 359.118954 135.226722 
L 359.725256 135.593516 
L 361.544162 130.668011 
L 362.150464 132.348038 
L 362.756766 132.462693 
L 363.363068 134.565257 
L 363.363068 134.565257 
" style="fill:none;stroke:#1f77b4;stroke-linecap:square;stroke-width:1.5;"/>
   </g>
   <g id="line2d_14">
    <path clip-path="url(#p84a04735de)" d="M 58.999432 103.493565 
L 59.605734 103.493565 
L 60.212036 95.392223 
L 60.818338 99.442894 
L 61.42464 99.442894 
L 62.030942 102.683431 
L 63.243546 107.544235 
L 63.849848 105.923967 
L 64.45615 105.923967 
L 65.062452 101.873296 
L 66.275057 100.253028 
L 67.487661 100.253028 
L 68.093963 101.873296 
L 68.700265 97.012492 
L 69.912869 84.050346 
L 70.519171 86.480748 
L 71.125473 86.480748 
L 71.731775 88.101016 
L 72.338077 95.392223 
L 72.944379 93.771955 
L 73.550681 94.582089 
L 74.156983 93.771955 
L 74.763285 89.721284 
L 75.369588 86.480748 
L 75.97589 85.670614 
L 76.582192 82.430077 
L 77.188494 75.949004 
L 77.794796 53.265249 
L 78.401098 62.986858 
L 79.0074 53.265249 
L 79.613702 67.037529 
L 80.220004 72.708468 
L 81.432608 75.949004 
L 82.03891 82.430077 
L 82.645212 85.670614 
L 83.857816 84.050346 
L 85.070421 92.961821 
L 85.676723 101.063162 
L 86.283025 142.380003 
L 87.495629 135.89893 
L 88.101931 131.038125 
L 88.708233 130.227991 
L 89.314535 130.227991 
L 89.920837 128.607723 
L 90.527139 127.797588 
L 91.133441 130.227991 
L 91.739743 130.227991 
L 92.346045 122.12665 
L 92.952347 124.557052 
L 93.558649 126.17732 
L 94.164952 122.12665 
L 94.771254 122.936784 
L 95.983858 137.519198 
L 96.59016 135.088796 
L 97.196462 139.139466 
L 97.802764 147.240808 
L 98.409066 139.139466 
L 99.015368 137.519198 
L 99.62167 138.329332 
L 100.227972 132.658393 
L 101.440576 140.759735 
L 102.046878 140.759735 
L 102.65318 143.190137 
L 103.259483 147.240808 
L 103.865785 149.67121 
L 104.472087 150.481344 
L 105.078389 152.101612 
L 106.290993 162.633356 
L 106.897295 160.202954 
L 107.503597 168.304295 
L 108.109899 165.873893 
L 108.716201 164.253624 
L 109.322503 169.924563 
L 109.928805 173.975234 
L 110.535107 183.696843 
L 111.141409 183.696843 
L 111.747711 189.367782 
L 112.354013 176.405636 
L 112.960316 182.886709 
L 113.566618 179.646173 
L 114.17292 182.076575 
L 114.779222 181.266441 
L 115.385524 185.317112 
L 115.991826 186.93738 
L 116.598128 186.127246 
L 117.20443 189.367782 
L 117.810732 190.98805 
L 118.417034 189.367782 
L 119.023336 189.367782 
L 119.629638 192.608319 
L 120.23594 196.658989 
L 120.842242 189.367782 
L 121.448544 195.038721 
L 122.054847 197.469124 
L 122.661149 204.760331 
L 123.267451 203.140062 
L 123.873753 198.279258 
L 124.480055 195.848855 
L 125.086357 197.469124 
L 125.692659 195.848855 
L 126.298961 195.848855 
L 126.905263 199.089392 
L 127.511565 199.089392 
L 128.117867 201.519794 
L 129.936773 196.658989 
L 130.543075 199.089392 
L 131.149377 197.469124 
L 131.75568 203.950197 
L 132.361982 206.380599 
L 132.968284 205.570465 
L 133.574586 208.811001 
L 134.180888 210.43127 
L 134.78719 213.671806 
L 135.393492 210.43127 
L 135.999794 208.811001 
L 136.606096 206.380599 
L 137.8187 209.621135 
L 138.425002 206.380599 
L 139.031304 205.570465 
L 139.637606 208.000867 
L 140.243908 211.241404 
L 140.850211 212.861672 
L 141.456513 215.292074 
L 142.062815 212.051538 
L 142.669117 213.671806 
L 143.275419 210.43127 
L 143.881721 209.621135 
L 144.488023 212.051538 
L 145.094325 212.861672 
L 145.700627 212.861672 
L 146.306929 214.48194 
L 146.913231 218.532611 
L 148.125835 208.000867 
L 148.732137 199.899526 
L 149.338439 175.595502 
L 149.944741 177.21577 
L 150.551044 179.646173 
L 151.157346 173.975234 
L 151.763648 185.317112 
L 152.36995 182.886709 
L 154.188856 200.70966 
L 154.795158 202.329928 
L 155.40146 194.228587 
L 156.007762 195.848855 
L 156.614064 184.506977 
L 157.220366 190.177916 
L 158.43297 196.658989 
L 159.039272 195.848855 
L 159.645575 193.418453 
L 160.251877 196.658989 
L 160.858179 197.469124 
L 161.464481 195.038721 
L 162.070783 190.98805 
L 162.677085 193.418453 
L 163.283387 190.98805 
L 163.889689 197.469124 
L 164.495991 195.848855 
L 165.102293 197.469124 
L 166.921199 195.038721 
L 167.527501 190.177916 
L 168.740105 191.798185 
L 169.346408 196.658989 
L 170.559012 196.658989 
L 171.165314 197.469124 
L 171.771616 199.089392 
L 172.377918 199.089392 
L 172.98422 197.469124 
L 174.196824 200.70966 
L 174.803126 205.570465 
L 175.409428 208.811001 
L 176.01573 208.811001 
L 176.622032 211.241404 
L 177.228334 208.811001 
L 177.834636 211.241404 
L 178.440939 214.48194 
L 179.047241 214.48194 
L 179.653543 212.861672 
L 180.259845 214.48194 
L 180.866147 213.671806 
L 181.472449 215.292074 
L 182.078751 212.051538 
L 182.685053 213.671806 
L 183.291355 222.583281 
L 183.897657 225.013684 
L 185.110261 226.633952 
L 185.716563 225.823818 
L 186.322865 226.633952 
L 187.535469 223.393416 
L 188.141772 219.342745 
L 188.748074 221.773147 
L 189.354376 225.013684 
L 191.173282 225.013684 
L 191.779584 225.823818 
L 192.385886 225.013684 
L 192.992188 225.823818 
L 193.59849 224.20355 
L 195.417396 226.633952 
L 196.023698 229.874489 
L 196.63 228.25422 
L 197.236303 229.064355 
L 197.842605 224.20355 
L 198.448907 225.013684 
L 199.661511 223.393416 
L 200.267813 219.342745 
L 200.874115 217.722477 
L 201.480417 212.051538 
L 202.086719 216.102208 
L 202.693021 219.342745 
L 203.299323 213.671806 
L 203.905625 211.241404 
L 205.118229 214.48194 
L 205.724531 214.48194 
L 206.330833 208.811001 
L 206.937136 207.190733 
L 208.14974 210.43127 
L 209.362344 208.811001 
L 209.968646 209.621135 
L 211.18125 209.621135 
L 211.787552 210.43127 
L 212.393854 214.48194 
L 213.606458 219.342745 
L 214.21276 218.532611 
L 214.819062 216.102208 
L 215.425364 218.532611 
L 216.031667 221.773147 
L 216.637969 221.773147 
L 217.244271 216.102208 
L 217.850573 212.861672 
L 218.456875 213.671806 
L 219.063177 222.583281 
L 219.669479 222.583281 
L 220.275781 220.963013 
L 220.882083 220.152879 
L 221.488385 222.583281 
L 222.094687 223.393416 
L 222.700989 223.393416 
L 223.307291 221.773147 
L 223.913593 218.532611 
L 224.519895 219.342745 
L 225.126197 213.671806 
L 225.7325 213.671806 
L 226.338802 210.43127 
L 226.945104 216.102208 
L 227.551406 208.811001 
L 228.157708 204.760331 
L 228.76401 207.190733 
L 229.370312 211.241404 
L 229.976614 213.671806 
L 231.189218 212.051538 
L 231.79552 213.671806 
L 232.401822 219.342745 
L 233.008124 221.773147 
L 233.614426 220.963013 
L 234.220728 221.773147 
L 234.827031 223.393416 
L 235.433333 226.633952 
L 236.039635 227.444086 
L 236.645937 226.633952 
L 238.464843 226.633952 
L 239.071145 224.20355 
L 239.677447 220.152879 
L 240.283749 217.722477 
L 240.890051 203.140062 
L 241.496353 208.000867 
L 242.102655 197.469124 
L 242.708957 195.038721 
L 243.315259 204.760331 
L 243.921561 199.089392 
L 244.527864 204.760331 
L 245.134166 203.950197 
L 245.740468 212.051538 
L 246.34677 208.811001 
L 246.953072 207.190733 
L 248.165676 192.608319 
L 248.771978 195.848855 
L 249.37828 202.329928 
L 249.984582 198.279258 
L 250.590884 197.469124 
L 251.197186 192.608319 
L 251.803488 195.848855 
L 253.016092 200.70966 
L 253.622395 208.000867 
L 254.228697 204.760331 
L 254.834999 208.000867 
L 255.441301 212.051538 
L 257.260207 209.621135 
L 258.472811 209.621135 
L 259.079113 211.241404 
L 259.685415 211.241404 
L 260.291717 213.671806 
L 260.898019 212.051538 
L 261.504321 212.861672 
L 262.716925 211.241404 
L 263.323228 213.671806 
L 263.92953 213.671806 
L 264.535832 212.051538 
L 265.142134 208.811001 
L 266.354738 212.051538 
L 266.96104 215.292074 
L 267.567342 220.152879 
L 268.779946 220.152879 
L 269.386248 222.583281 
L 270.598852 217.722477 
L 271.205154 213.671806 
L 271.811456 203.140062 
L 272.417759 198.279258 
L 273.024061 186.93738 
L 273.630363 188.557648 
L 274.236665 178.025904 
L 274.842967 178.025904 
L 275.449269 181.266441 
L 276.055571 180.456307 
L 276.661873 163.44349 
L 277.268175 169.114429 
L 277.874477 180.456307 
L 278.480779 178.025904 
L 279.087081 183.696843 
L 279.693383 175.595502 
L 280.905987 182.076575 
L 281.512289 179.646173 
L 282.118592 183.696843 
L 282.724894 176.405636 
L 283.331196 176.405636 
L 283.937498 173.1651 
L 284.5438 178.025904 
L 285.150102 173.1651 
L 285.756404 175.595502 
L 286.362706 161.823222 
L 286.969008 160.202954 
L 287.57531 137.519198 
L 288.181612 134.278662 
L 288.787914 127.797588 
L 290.000518 140.759735 
L 290.60682 144.000271 
L 291.213123 122.12665 
L 291.819425 122.12665 
L 292.425727 121.316515 
L 293.032029 119.696247 
L 293.638331 124.557052 
L 294.244633 133.468527 
L 294.850935 129.417857 
L 295.457237 133.468527 
L 296.063539 134.278662 
L 296.669841 137.519198 
L 297.276143 132.658393 
L 298.488747 153.721881 
L 299.095049 153.721881 
L 299.701351 158.582685 
L 300.307653 156.962417 
L 300.913956 162.633356 
L 301.520258 164.253624 
L 302.12656 167.494161 
L 302.732862 173.975234 
L 303.339164 177.21577 
L 303.945466 178.836039 
L 304.551768 173.975234 
L 305.15807 176.405636 
L 305.764372 182.886709 
L 306.370674 177.21577 
L 306.976976 181.266441 
L 307.583278 182.076575 
L 308.18958 178.836039 
L 308.795882 179.646173 
L 309.402184 186.93738 
L 310.008487 184.506977 
L 310.614789 188.557648 
L 311.827393 190.177916 
L 312.433695 189.367782 
L 313.039997 184.506977 
L 313.646299 185.317112 
L 314.252601 189.367782 
L 314.858903 185.317112 
L 315.465205 190.98805 
L 316.071507 190.177916 
L 316.677809 198.279258 
L 317.284111 201.519794 
L 317.890413 199.089392 
L 318.496715 192.608319 
L 319.103017 184.506977 
L 319.70932 181.266441 
L 320.315622 174.785368 
L 320.921924 164.253624 
L 321.528226 157.772551 
L 322.134528 158.582685 
L 322.74083 156.152283 
L 323.347132 148.861076 
L 323.953434 152.101612 
L 324.559736 142.380003 
L 325.166038 139.9496 
L 325.77234 131.038125 
L 326.378642 137.519198 
L 326.984944 112.40504 
L 327.591246 95.392223 
L 328.197548 72.708468 
L 328.803851 75.949004 
L 329.410153 96.202357 
L 330.016455 62.986858 
L 330.622757 72.708468 
L 331.229059 74.328736 
L 332.441663 32.201761 
L 333.047965 68.657797 
L 333.654267 71.0882 
L 334.260569 49.214578 
L 335.473173 71.898334 
L 336.079475 92.151687 
L 336.685777 96.202357 
L 337.292079 75.949004 
L 337.898381 71.0882 
L 338.504684 75.13887 
L 339.110986 84.050346 
L 339.717288 81.619943 
L 340.32359 96.202357 
L 340.929892 79.189541 
L 341.536194 84.050346 
L 342.142496 87.290882 
L 342.748798 116.455711 
L 343.3551 114.025308 
L 345.780308 147.240808 
L 346.38661 161.013088 
L 346.992912 158.582685 
L 347.599215 165.063758 
L 348.205517 165.063758 
L 348.811819 167.494161 
L 349.418121 168.304295 
L 350.024423 168.304295 
L 350.630725 171.544831 
L 351.237027 166.684027 
L 351.843329 171.544831 
L 352.449631 166.684027 
L 353.055933 165.063758 
L 353.662235 164.253624 
L 354.268537 156.962417 
L 354.874839 163.44349 
L 355.481141 171.544831 
L 356.693745 176.405636 
L 357.300048 164.253624 
L 358.512652 159.392819 
L 359.118954 161.823222 
L 359.725256 156.152283 
L 360.331558 152.101612 
L 360.93786 146.430673 
L 361.544162 155.342149 
L 362.150464 156.152283 
L 362.756766 164.253624 
L 363.363068 166.684027 
L 363.363068 166.684027 
" style="fill:none;stroke:#ff7f0e;stroke-linecap:square;stroke-width:1.5;"/>
   </g>
   <g id="patch_3">
    <path d="M 43.78125 239.758125 
L 43.78125 22.318125 
" style="fill:none;stroke:#000000;stroke-linecap:square;stroke-linejoin:miter;stroke-width:0.8;"/>
   </g>
   <g id="patch_4">
    <path d="M 378.58125 239.758125 
L 378.58125 22.318125 
" style="fill:none;stroke:#000000;stroke-linecap:square;stroke-linejoin:miter;stroke-width:0.8;"/>
   </g>
   <g id="patch_5">
    <path d="M 43.78125 239.758125 
L 378.58125 239.758125 
" style="fill:none;stroke:#000000;stroke-linecap:square;stroke-linejoin:miter;stroke-width:0.8;"/>
   </g>
   <g id="patch_6">
    <path d="M 43.78125 22.318125 
L 378.58125 22.318125 
" style="fill:none;stroke:#000000;stroke-linecap:square;stroke-linejoin:miter;stroke-width:0.8;"/>
   </g>
   <g id="text_15">
    <!-- Prediction of Stock Price for PetroChina -->
    <g transform="translate(93.980625 16.318125)scale(0.12 -0.12)">
     <defs>
      <path d="M 1259 4147 
L 1259 2394 
L 2053 2394 
Q 2494 2394 2734 2622 
Q 2975 2850 2975 3272 
Q 2975 3691 2734 3919 
Q 2494 4147 2053 4147 
L 1259 4147 
z
M 628 4666 
L 2053 4666 
Q 2838 4666 3239 4311 
Q 3641 3956 3641 3272 
Q 3641 2581 3239 2228 
Q 2838 1875 2053 1875 
L 1259 1875 
L 1259 0 
L 628 0 
L 628 4666 
z
" id="DejaVuSans-50" transform="scale(0.015625)"/>
      <path d="M 1172 4494 
L 1172 3500 
L 2356 3500 
L 2356 3053 
L 1172 3053 
L 1172 1153 
Q 1172 725 1289 603 
Q 1406 481 1766 481 
L 2356 481 
L 2356 0 
L 1766 0 
Q 1100 0 847 248 
Q 594 497 594 1153 
L 594 3053 
L 172 3053 
L 172 3500 
L 594 3500 
L 594 4494 
L 1172 4494 
z
" id="DejaVuSans-74" transform="scale(0.015625)"/>
      <path d="M 3513 2113 
L 3513 0 
L 2938 0 
L 2938 2094 
Q 2938 2591 2744 2837 
Q 2550 3084 2163 3084 
Q 1697 3084 1428 2787 
Q 1159 2491 1159 1978 
L 1159 0 
L 581 0 
L 581 3500 
L 1159 3500 
L 1159 2956 
Q 1366 3272 1645 3428 
Q 1925 3584 2291 3584 
Q 2894 3584 3203 3211 
Q 3513 2838 3513 2113 
z
" id="DejaVuSans-6e" transform="scale(0.015625)"/>
      <path d="M 2375 4863 
L 2375 4384 
L 1825 4384 
Q 1516 4384 1395 4259 
Q 1275 4134 1275 3809 
L 1275 3500 
L 2222 3500 
L 2222 3053 
L 1275 3053 
L 1275 0 
L 697 0 
L 697 3053 
L 147 3053 
L 147 3500 
L 697 3500 
L 697 3744 
Q 697 4328 969 4595 
Q 1241 4863 1831 4863 
L 2375 4863 
z
" id="DejaVuSans-66" transform="scale(0.015625)"/>
      <path d="M 3425 4513 
L 3425 3897 
Q 3066 4069 2747 4153 
Q 2428 4238 2131 4238 
Q 1616 4238 1336 4038 
Q 1056 3838 1056 3469 
Q 1056 3159 1242 3001 
Q 1428 2844 1947 2747 
L 2328 2669 
Q 3034 2534 3370 2195 
Q 3706 1856 3706 1288 
Q 3706 609 3251 259 
Q 2797 -91 1919 -91 
Q 1588 -91 1214 -16 
Q 841 59 441 206 
L 441 856 
Q 825 641 1194 531 
Q 1563 422 1919 422 
Q 2459 422 2753 634 
Q 3047 847 3047 1241 
Q 3047 1584 2836 1778 
Q 2625 1972 2144 2069 
L 1759 2144 
Q 1053 2284 737 2584 
Q 422 2884 422 3419 
Q 422 4038 858 4394 
Q 1294 4750 2059 4750 
Q 2388 4750 2728 4690 
Q 3069 4631 3425 4513 
z
" id="DejaVuSans-53" transform="scale(0.015625)"/>
      <path d="M 581 4863 
L 1159 4863 
L 1159 1991 
L 2875 3500 
L 3609 3500 
L 1753 1863 
L 3688 0 
L 2938 0 
L 1159 1709 
L 1159 0 
L 581 0 
L 581 4863 
z
" id="DejaVuSans-6b" transform="scale(0.015625)"/>
      <path d="M 3513 2113 
L 3513 0 
L 2938 0 
L 2938 2094 
Q 2938 2591 2744 2837 
Q 2550 3084 2163 3084 
Q 1697 3084 1428 2787 
Q 1159 2491 1159 1978 
L 1159 0 
L 581 0 
L 581 4863 
L 1159 4863 
L 1159 2956 
Q 1366 3272 1645 3428 
Q 1925 3584 2291 3584 
Q 2894 3584 3203 3211 
Q 3513 2838 3513 2113 
z
" id="DejaVuSans-68" transform="scale(0.015625)"/>
     </defs>
     <use xlink:href="#DejaVuSans-50"/>
     <use x="58.552734" xlink:href="#DejaVuSans-72"/>
     <use x="97.416016" xlink:href="#DejaVuSans-65"/>
     <use x="158.939453" xlink:href="#DejaVuSans-64"/>
     <use x="222.416016" xlink:href="#DejaVuSans-69"/>
     <use x="250.199219" xlink:href="#DejaVuSans-63"/>
     <use x="305.179688" xlink:href="#DejaVuSans-74"/>
     <use x="344.388672" xlink:href="#DejaVuSans-69"/>
     <use x="372.171875" xlink:href="#DejaVuSans-6f"/>
     <use x="433.353516" xlink:href="#DejaVuSans-6e"/>
     <use x="496.732422" xlink:href="#DejaVuSans-20"/>
     <use x="528.519531" xlink:href="#DejaVuSans-6f"/>
     <use x="589.701172" xlink:href="#DejaVuSans-66"/>
     <use x="624.90625" xlink:href="#DejaVuSans-20"/>
     <use x="656.693359" xlink:href="#DejaVuSans-53"/>
     <use x="720.169922" xlink:href="#DejaVuSans-74"/>
     <use x="759.378906" xlink:href="#DejaVuSans-6f"/>
     <use x="820.560547" xlink:href="#DejaVuSans-63"/>
     <use x="875.541016" xlink:href="#DejaVuSans-6b"/>
     <use x="933.451172" xlink:href="#DejaVuSans-20"/>
     <use x="965.238281" xlink:href="#DejaVuSans-50"/>
     <use x="1023.791016" xlink:href="#DejaVuSans-72"/>
     <use x="1064.904297" xlink:href="#DejaVuSans-69"/>
     <use x="1092.6875" xlink:href="#DejaVuSans-63"/>
     <use x="1147.667969" xlink:href="#DejaVuSans-65"/>
     <use x="1209.191406" xlink:href="#DejaVuSans-20"/>
     <use x="1240.978516" xlink:href="#DejaVuSans-66"/>
     <use x="1276.183594" xlink:href="#DejaVuSans-6f"/>
     <use x="1337.365234" xlink:href="#DejaVuSans-72"/>
     <use x="1378.478516" xlink:href="#DejaVuSans-20"/>
     <use x="1410.265625" xlink:href="#DejaVuSans-50"/>
     <use x="1466.943359" xlink:href="#DejaVuSans-65"/>
     <use x="1528.466797" xlink:href="#DejaVuSans-74"/>
     <use x="1567.675781" xlink:href="#DejaVuSans-72"/>
     <use x="1606.539062" xlink:href="#DejaVuSans-6f"/>
     <use x="1667.720703" xlink:href="#DejaVuSans-43"/>
     <use x="1737.544922" xlink:href="#DejaVuSans-68"/>
     <use x="1800.923828" xlink:href="#DejaVuSans-69"/>
     <use x="1828.707031" xlink:href="#DejaVuSans-6e"/>
     <use x="1892.085938" xlink:href="#DejaVuSans-61"/>
    </g>
   </g>
   <g id="legend_1">
    <g id="patch_7">
     <path d="M 289.907813 234.758125 
L 371.58125 234.758125 
Q 373.58125 234.758125 373.58125 232.758125 
L 373.58125 204.401875 
Q 373.58125 202.401875 371.58125 202.401875 
L 289.907813 202.401875 
Q 287.907813 202.401875 287.907813 204.401875 
L 287.907813 232.758125 
Q 287.907813 234.758125 289.907813 234.758125 
z
" style="fill:#ffffff;opacity:0.8;stroke:#cccccc;stroke-linejoin:miter;"/>
    </g>
    <g id="line2d_15">
     <path d="M 291.907813 210.500312 
L 311.907813 210.500312 
" style="fill:none;stroke:#1f77b4;stroke-linecap:square;stroke-width:1.5;"/>
    </g>
    <g id="line2d_16"/>
    <g id="text_16">
     <!-- Prediction -->
     <g transform="translate(319.907813 214.000312)scale(0.1 -0.1)">
      <use xlink:href="#DejaVuSans-50"/>
      <use x="58.552734" xlink:href="#DejaVuSans-72"/>
      <use x="97.416016" xlink:href="#DejaVuSans-65"/>
      <use x="158.939453" xlink:href="#DejaVuSans-64"/>
      <use x="222.416016" xlink:href="#DejaVuSans-69"/>
      <use x="250.199219" xlink:href="#DejaVuSans-63"/>
      <use x="305.179688" xlink:href="#DejaVuSans-74"/>
      <use x="344.388672" xlink:href="#DejaVuSans-69"/>
      <use x="372.171875" xlink:href="#DejaVuSans-6f"/>
      <use x="433.353516" xlink:href="#DejaVuSans-6e"/>
     </g>
    </g>
    <g id="line2d_17">
     <path d="M 291.907813 225.178437 
L 311.907813 225.178437 
" style="fill:none;stroke:#ff7f0e;stroke-linecap:square;stroke-width:1.5;"/>
    </g>
    <g id="line2d_18"/>
    <g id="text_17">
     <!-- True Price -->
     <g transform="translate(319.907813 228.678437)scale(0.1 -0.1)">
      <use xlink:href="#DejaVuSans-54"/>
      <use x="46.333984" xlink:href="#DejaVuSans-72"/>
      <use x="87.447266" xlink:href="#DejaVuSans-75"/>
      <use x="150.826172" xlink:href="#DejaVuSans-65"/>
      <use x="212.349609" xlink:href="#DejaVuSans-20"/>
      <use x="244.136719" xlink:href="#DejaVuSans-50"/>
      <use x="302.689453" xlink:href="#DejaVuSans-72"/>
      <use x="343.802734" xlink:href="#DejaVuSans-69"/>
      <use x="371.585938" xlink:href="#DejaVuSans-63"/>
      <use x="426.566406" xlink:href="#DejaVuSans-65"/>
     </g>
    </g>
   </g>
  </g>
 </g>
 <defs>
  <clipPath id="p84a04735de">
   <rect height="217.44" width="334.8" x="43.78125" y="22.318125"/>
  </clipPath>
 </defs>
</svg>
