<?xml version="1.0" encoding="utf-8" standalone="no"?>
<!DOCTYPE svg PUBLIC "-//W3C//DTD SVG 1.1//EN"
  "http://www.w3.org/Graphics/SVG/1.1/DTD/svg11.dtd">
<svg height="277.314375pt" version="1.1" viewBox="0 0 395.328125 277.314375" width="395.328125pt" xmlns="http://www.w3.org/2000/svg" xmlns:xlink="http://www.w3.org/1999/xlink">
 <metadata>
  <rdf:RDF xmlns:cc="http://creativecommons.org/ns#" xmlns:dc="http://purl.org/dc/elements/1.1/" xmlns:rdf="http://www.w3.org/1999/02/22-rdf-syntax-ns#">
   <cc:Work>
    <dc:type rdf:resource="http://purl.org/dc/dcmitype/StillImage"/>
    <dc:date>2021-12-24T12:02:14.034690</dc:date>
    <dc:format>image/svg+xml</dc:format>
    <dc:creator>
     <cc:Agent>
      <dc:title>Matplotlib v3.4.3, https://matplotlib.org/</dc:title>
     </cc:Agent>
    </dc:creator>
   </cc:Work>
  </rdf:RDF>
 </metadata>
 <defs>
  <style type="text/css">*{stroke-linecap:butt;stroke-linejoin:round;}</style>
 </defs>
 <g id="figure_1">
  <g id="patch_1">
   <path d="M 0 277.314375 
L 395.328125 277.314375 
L 395.328125 0 
L 0 0 
z
" style="fill:none;"/>
  </g>
  <g id="axes_1">
   <g id="patch_2">
    <path d="M 53.328125 239.758125 
L 388.128125 239.758125 
L 388.128125 22.318125 
L 53.328125 22.318125 
z
" style="fill:#ffffff;"/>
   </g>
   <g id="matplotlib.axis_1">
    <g id="xtick_1">
     <g id="line2d_1">
      <defs>
       <path d="M 0 0 
L 0 3.5 
" id="m7a451621a0" style="stroke:#000000;stroke-width:0.8;"/>
      </defs>
      <g>
       <use style="stroke:#000000;stroke-width:0.8;" x="68.546307" xlink:href="#m7a451621a0" y="239.758125"/>
      </g>
     </g>
     <g id="text_1">
      <!-- 0 -->
      <g transform="translate(65.365057 254.356562)scale(0.1 -0.1)">
       <defs>
        <path d="M 2034 4250 
Q 1547 4250 1301 3770 
Q 1056 3291 1056 2328 
Q 1056 1369 1301 889 
Q 1547 409 2034 409 
Q 2525 409 2770 889 
Q 3016 1369 3016 2328 
Q 3016 3291 2770 3770 
Q 2525 4250 2034 4250 
z
M 2034 4750 
Q 2819 4750 3233 4129 
Q 3647 3509 3647 2328 
Q 3647 1150 3233 529 
Q 2819 -91 2034 -91 
Q 1250 -91 836 529 
Q 422 1150 422 2328 
Q 422 3509 836 4129 
Q 1250 4750 2034 4750 
z
" id="DejaVuSans-30" transform="scale(0.015625)"/>
       </defs>
       <use xlink:href="#DejaVuSans-30"/>
      </g>
     </g>
    </g>
    <g id="xtick_2">
     <g id="line2d_2">
      <g>
       <use style="stroke:#000000;stroke-width:0.8;" x="106.591761" xlink:href="#m7a451621a0" y="239.758125"/>
      </g>
     </g>
     <g id="text_2">
      <!-- 25 -->
      <g transform="translate(100.229261 254.356562)scale(0.1 -0.1)">
       <defs>
        <path d="M 1228 531 
L 3431 531 
L 3431 0 
L 469 0 
L 469 531 
Q 828 903 1448 1529 
Q 2069 2156 2228 2338 
Q 2531 2678 2651 2914 
Q 2772 3150 2772 3378 
Q 2772 3750 2511 3984 
Q 2250 4219 1831 4219 
Q 1534 4219 1204 4116 
Q 875 4013 500 3803 
L 500 4441 
Q 881 4594 1212 4672 
Q 1544 4750 1819 4750 
Q 2544 4750 2975 4387 
Q 3406 4025 3406 3419 
Q 3406 3131 3298 2873 
Q 3191 2616 2906 2266 
Q 2828 2175 2409 1742 
Q 1991 1309 1228 531 
z
" id="DejaVuSans-32" transform="scale(0.015625)"/>
        <path d="M 691 4666 
L 3169 4666 
L 3169 4134 
L 1269 4134 
L 1269 2991 
Q 1406 3038 1543 3061 
Q 1681 3084 1819 3084 
Q 2600 3084 3056 2656 
Q 3513 2228 3513 1497 
Q 3513 744 3044 326 
Q 2575 -91 1722 -91 
Q 1428 -91 1123 -41 
Q 819 9 494 109 
L 494 744 
Q 775 591 1075 516 
Q 1375 441 1709 441 
Q 2250 441 2565 725 
Q 2881 1009 2881 1497 
Q 2881 1984 2565 2268 
Q 2250 2553 1709 2553 
Q 1456 2553 1204 2497 
Q 953 2441 691 2322 
L 691 4666 
z
" id="DejaVuSans-35" transform="scale(0.015625)"/>
       </defs>
       <use xlink:href="#DejaVuSans-32"/>
       <use x="63.623047" xlink:href="#DejaVuSans-35"/>
      </g>
     </g>
    </g>
    <g id="xtick_3">
     <g id="line2d_3">
      <g>
       <use style="stroke:#000000;stroke-width:0.8;" x="144.637216" xlink:href="#m7a451621a0" y="239.758125"/>
      </g>
     </g>
     <g id="text_3">
      <!-- 50 -->
      <g transform="translate(138.274716 254.356562)scale(0.1 -0.1)">
       <use xlink:href="#DejaVuSans-35"/>
       <use x="63.623047" xlink:href="#DejaVuSans-30"/>
      </g>
     </g>
    </g>
    <g id="xtick_4">
     <g id="line2d_4">
      <g>
       <use style="stroke:#000000;stroke-width:0.8;" x="182.68267" xlink:href="#m7a451621a0" y="239.758125"/>
      </g>
     </g>
     <g id="text_4">
      <!-- 75 -->
      <g transform="translate(176.32017 254.356562)scale(0.1 -0.1)">
       <defs>
        <path d="M 525 4666 
L 3525 4666 
L 3525 4397 
L 1831 0 
L 1172 0 
L 2766 4134 
L 525 4134 
L 525 4666 
z
" id="DejaVuSans-37" transform="scale(0.015625)"/>
       </defs>
       <use xlink:href="#DejaVuSans-37"/>
       <use x="63.623047" xlink:href="#DejaVuSans-35"/>
      </g>
     </g>
    </g>
    <g id="xtick_5">
     <g id="line2d_5">
      <g>
       <use style="stroke:#000000;stroke-width:0.8;" x="220.728125" xlink:href="#m7a451621a0" y="239.758125"/>
      </g>
     </g>
     <g id="text_5">
      <!-- 100 -->
      <g transform="translate(211.184375 254.356562)scale(0.1 -0.1)">
       <defs>
        <path d="M 794 531 
L 1825 531 
L 1825 4091 
L 703 3866 
L 703 4441 
L 1819 4666 
L 2450 4666 
L 2450 531 
L 3481 531 
L 3481 0 
L 794 0 
L 794 531 
z
" id="DejaVuSans-31" transform="scale(0.015625)"/>
       </defs>
       <use xlink:href="#DejaVuSans-31"/>
       <use x="63.623047" xlink:href="#DejaVuSans-30"/>
       <use x="127.246094" xlink:href="#DejaVuSans-30"/>
      </g>
     </g>
    </g>
    <g id="xtick_6">
     <g id="line2d_6">
      <g>
       <use style="stroke:#000000;stroke-width:0.8;" x="258.77358" xlink:href="#m7a451621a0" y="239.758125"/>
      </g>
     </g>
     <g id="text_6">
      <!-- 125 -->
      <g transform="translate(249.22983 254.356562)scale(0.1 -0.1)">
       <use xlink:href="#DejaVuSans-31"/>
       <use x="63.623047" xlink:href="#DejaVuSans-32"/>
       <use x="127.246094" xlink:href="#DejaVuSans-35"/>
      </g>
     </g>
    </g>
    <g id="xtick_7">
     <g id="line2d_7">
      <g>
       <use style="stroke:#000000;stroke-width:0.8;" x="296.819034" xlink:href="#m7a451621a0" y="239.758125"/>
      </g>
     </g>
     <g id="text_7">
      <!-- 150 -->
      <g transform="translate(287.275284 254.356562)scale(0.1 -0.1)">
       <use xlink:href="#DejaVuSans-31"/>
       <use x="63.623047" xlink:href="#DejaVuSans-35"/>
       <use x="127.246094" xlink:href="#DejaVuSans-30"/>
      </g>
     </g>
    </g>
    <g id="xtick_8">
     <g id="line2d_8">
      <g>
       <use style="stroke:#000000;stroke-width:0.8;" x="334.864489" xlink:href="#m7a451621a0" y="239.758125"/>
      </g>
     </g>
     <g id="text_8">
      <!-- 175 -->
      <g transform="translate(325.320739 254.356562)scale(0.1 -0.1)">
       <use xlink:href="#DejaVuSans-31"/>
       <use x="63.623047" xlink:href="#DejaVuSans-37"/>
       <use x="127.246094" xlink:href="#DejaVuSans-35"/>
      </g>
     </g>
    </g>
    <g id="xtick_9">
     <g id="line2d_9">
      <g>
       <use style="stroke:#000000;stroke-width:0.8;" x="372.909943" xlink:href="#m7a451621a0" y="239.758125"/>
      </g>
     </g>
     <g id="text_9">
      <!-- 200 -->
      <g transform="translate(363.366193 254.356562)scale(0.1 -0.1)">
       <use xlink:href="#DejaVuSans-32"/>
       <use x="63.623047" xlink:href="#DejaVuSans-30"/>
       <use x="127.246094" xlink:href="#DejaVuSans-30"/>
      </g>
     </g>
    </g>
    <g id="text_10">
     <!-- Time value (day) -->
     <g transform="translate(178.559375 268.034687)scale(0.1 -0.1)">
      <defs>
       <path d="M -19 4666 
L 3928 4666 
L 3928 4134 
L 2272 4134 
L 2272 0 
L 1638 0 
L 1638 4134 
L -19 4134 
L -19 4666 
z
" id="DejaVuSans-54" transform="scale(0.015625)"/>
       <path d="M 603 3500 
L 1178 3500 
L 1178 0 
L 603 0 
L 603 3500 
z
M 603 4863 
L 1178 4863 
L 1178 4134 
L 603 4134 
L 603 4863 
z
" id="DejaVuSans-69" transform="scale(0.015625)"/>
       <path d="M 3328 2828 
Q 3544 3216 3844 3400 
Q 4144 3584 4550 3584 
Q 5097 3584 5394 3201 
Q 5691 2819 5691 2113 
L 5691 0 
L 5113 0 
L 5113 2094 
Q 5113 2597 4934 2840 
Q 4756 3084 4391 3084 
Q 3944 3084 3684 2787 
Q 3425 2491 3425 1978 
L 3425 0 
L 2847 0 
L 2847 2094 
Q 2847 2600 2669 2842 
Q 2491 3084 2119 3084 
Q 1678 3084 1418 2786 
Q 1159 2488 1159 1978 
L 1159 0 
L 581 0 
L 581 3500 
L 1159 3500 
L 1159 2956 
Q 1356 3278 1631 3431 
Q 1906 3584 2284 3584 
Q 2666 3584 2933 3390 
Q 3200 3197 3328 2828 
z
" id="DejaVuSans-6d" transform="scale(0.015625)"/>
       <path d="M 3597 1894 
L 3597 1613 
L 953 1613 
Q 991 1019 1311 708 
Q 1631 397 2203 397 
Q 2534 397 2845 478 
Q 3156 559 3463 722 
L 3463 178 
Q 3153 47 2828 -22 
Q 2503 -91 2169 -91 
Q 1331 -91 842 396 
Q 353 884 353 1716 
Q 353 2575 817 3079 
Q 1281 3584 2069 3584 
Q 2775 3584 3186 3129 
Q 3597 2675 3597 1894 
z
M 3022 2063 
Q 3016 2534 2758 2815 
Q 2500 3097 2075 3097 
Q 1594 3097 1305 2825 
Q 1016 2553 972 2059 
L 3022 2063 
z
" id="DejaVuSans-65" transform="scale(0.015625)"/>
       <path id="DejaVuSans-20" transform="scale(0.015625)"/>
       <path d="M 191 3500 
L 800 3500 
L 1894 563 
L 2988 3500 
L 3597 3500 
L 2284 0 
L 1503 0 
L 191 3500 
z
" id="DejaVuSans-76" transform="scale(0.015625)"/>
       <path d="M 2194 1759 
Q 1497 1759 1228 1600 
Q 959 1441 959 1056 
Q 959 750 1161 570 
Q 1363 391 1709 391 
Q 2188 391 2477 730 
Q 2766 1069 2766 1631 
L 2766 1759 
L 2194 1759 
z
M 3341 1997 
L 3341 0 
L 2766 0 
L 2766 531 
Q 2569 213 2275 61 
Q 1981 -91 1556 -91 
Q 1019 -91 701 211 
Q 384 513 384 1019 
Q 384 1609 779 1909 
Q 1175 2209 1959 2209 
L 2766 2209 
L 2766 2266 
Q 2766 2663 2505 2880 
Q 2244 3097 1772 3097 
Q 1472 3097 1187 3025 
Q 903 2953 641 2809 
L 641 3341 
Q 956 3463 1253 3523 
Q 1550 3584 1831 3584 
Q 2591 3584 2966 3190 
Q 3341 2797 3341 1997 
z
" id="DejaVuSans-61" transform="scale(0.015625)"/>
       <path d="M 603 4863 
L 1178 4863 
L 1178 0 
L 603 0 
L 603 4863 
z
" id="DejaVuSans-6c" transform="scale(0.015625)"/>
       <path d="M 544 1381 
L 544 3500 
L 1119 3500 
L 1119 1403 
Q 1119 906 1312 657 
Q 1506 409 1894 409 
Q 2359 409 2629 706 
Q 2900 1003 2900 1516 
L 2900 3500 
L 3475 3500 
L 3475 0 
L 2900 0 
L 2900 538 
Q 2691 219 2414 64 
Q 2138 -91 1772 -91 
Q 1169 -91 856 284 
Q 544 659 544 1381 
z
M 1991 3584 
L 1991 3584 
z
" id="DejaVuSans-75" transform="scale(0.015625)"/>
       <path d="M 1984 4856 
Q 1566 4138 1362 3434 
Q 1159 2731 1159 2009 
Q 1159 1288 1364 580 
Q 1569 -128 1984 -844 
L 1484 -844 
Q 1016 -109 783 600 
Q 550 1309 550 2009 
Q 550 2706 781 3412 
Q 1013 4119 1484 4856 
L 1984 4856 
z
" id="DejaVuSans-28" transform="scale(0.015625)"/>
       <path d="M 2906 2969 
L 2906 4863 
L 3481 4863 
L 3481 0 
L 2906 0 
L 2906 525 
Q 2725 213 2448 61 
Q 2172 -91 1784 -91 
Q 1150 -91 751 415 
Q 353 922 353 1747 
Q 353 2572 751 3078 
Q 1150 3584 1784 3584 
Q 2172 3584 2448 3432 
Q 2725 3281 2906 2969 
z
M 947 1747 
Q 947 1113 1208 752 
Q 1469 391 1925 391 
Q 2381 391 2643 752 
Q 2906 1113 2906 1747 
Q 2906 2381 2643 2742 
Q 2381 3103 1925 3103 
Q 1469 3103 1208 2742 
Q 947 2381 947 1747 
z
" id="DejaVuSans-64" transform="scale(0.015625)"/>
       <path d="M 2059 -325 
Q 1816 -950 1584 -1140 
Q 1353 -1331 966 -1331 
L 506 -1331 
L 506 -850 
L 844 -850 
Q 1081 -850 1212 -737 
Q 1344 -625 1503 -206 
L 1606 56 
L 191 3500 
L 800 3500 
L 1894 763 
L 2988 3500 
L 3597 3500 
L 2059 -325 
z
" id="DejaVuSans-79" transform="scale(0.015625)"/>
       <path d="M 513 4856 
L 1013 4856 
Q 1481 4119 1714 3412 
Q 1947 2706 1947 2009 
Q 1947 1309 1714 600 
Q 1481 -109 1013 -844 
L 513 -844 
Q 928 -128 1133 580 
Q 1338 1288 1338 2009 
Q 1338 2731 1133 3434 
Q 928 4138 513 4856 
z
" id="DejaVuSans-29" transform="scale(0.015625)"/>
      </defs>
      <use xlink:href="#DejaVuSans-54"/>
      <use x="57.958984" xlink:href="#DejaVuSans-69"/>
      <use x="85.742188" xlink:href="#DejaVuSans-6d"/>
      <use x="183.154297" xlink:href="#DejaVuSans-65"/>
      <use x="244.677734" xlink:href="#DejaVuSans-20"/>
      <use x="276.464844" xlink:href="#DejaVuSans-76"/>
      <use x="335.644531" xlink:href="#DejaVuSans-61"/>
      <use x="396.923828" xlink:href="#DejaVuSans-6c"/>
      <use x="424.707031" xlink:href="#DejaVuSans-75"/>
      <use x="488.085938" xlink:href="#DejaVuSans-65"/>
      <use x="549.609375" xlink:href="#DejaVuSans-20"/>
      <use x="581.396484" xlink:href="#DejaVuSans-28"/>
      <use x="620.410156" xlink:href="#DejaVuSans-64"/>
      <use x="683.886719" xlink:href="#DejaVuSans-61"/>
      <use x="745.166016" xlink:href="#DejaVuSans-79"/>
      <use x="804.345703" xlink:href="#DejaVuSans-29"/>
     </g>
    </g>
   </g>
   <g id="matplotlib.axis_2">
    <g id="ytick_1">
     <g id="line2d_10">
      <defs>
       <path d="M 0 0 
L -3.5 0 
" id="md77da1170e" style="stroke:#000000;stroke-width:0.8;"/>
      </defs>
      <g>
       <use style="stroke:#000000;stroke-width:0.8;" x="53.328125" xlink:href="#md77da1170e" y="194.470148"/>
      </g>
     </g>
     <g id="text_11">
      <!-- 400 -->
      <g transform="translate(27.240625 198.269366)scale(0.1 -0.1)">
       <defs>
        <path d="M 2419 4116 
L 825 1625 
L 2419 1625 
L 2419 4116 
z
M 2253 4666 
L 3047 4666 
L 3047 1625 
L 3713 1625 
L 3713 1100 
L 3047 1100 
L 3047 0 
L 2419 0 
L 2419 1100 
L 313 1100 
L 313 1709 
L 2253 4666 
z
" id="DejaVuSans-34" transform="scale(0.015625)"/>
       </defs>
       <use xlink:href="#DejaVuSans-34"/>
       <use x="63.623047" xlink:href="#DejaVuSans-30"/>
       <use x="127.246094" xlink:href="#DejaVuSans-30"/>
      </g>
     </g>
    </g>
    <g id="ytick_2">
     <g id="line2d_11">
      <g>
       <use style="stroke:#000000;stroke-width:0.8;" x="53.328125" xlink:href="#md77da1170e" y="146.613359"/>
      </g>
     </g>
     <g id="text_12">
      <!-- 600 -->
      <g transform="translate(27.240625 150.412578)scale(0.1 -0.1)">
       <defs>
        <path d="M 2113 2584 
Q 1688 2584 1439 2293 
Q 1191 2003 1191 1497 
Q 1191 994 1439 701 
Q 1688 409 2113 409 
Q 2538 409 2786 701 
Q 3034 994 3034 1497 
Q 3034 2003 2786 2293 
Q 2538 2584 2113 2584 
z
M 3366 4563 
L 3366 3988 
Q 3128 4100 2886 4159 
Q 2644 4219 2406 4219 
Q 1781 4219 1451 3797 
Q 1122 3375 1075 2522 
Q 1259 2794 1537 2939 
Q 1816 3084 2150 3084 
Q 2853 3084 3261 2657 
Q 3669 2231 3669 1497 
Q 3669 778 3244 343 
Q 2819 -91 2113 -91 
Q 1303 -91 875 529 
Q 447 1150 447 2328 
Q 447 3434 972 4092 
Q 1497 4750 2381 4750 
Q 2619 4750 2861 4703 
Q 3103 4656 3366 4563 
z
" id="DejaVuSans-36" transform="scale(0.015625)"/>
       </defs>
       <use xlink:href="#DejaVuSans-36"/>
       <use x="63.623047" xlink:href="#DejaVuSans-30"/>
       <use x="127.246094" xlink:href="#DejaVuSans-30"/>
      </g>
     </g>
    </g>
    <g id="ytick_3">
     <g id="line2d_12">
      <g>
       <use style="stroke:#000000;stroke-width:0.8;" x="53.328125" xlink:href="#md77da1170e" y="98.75657"/>
      </g>
     </g>
     <g id="text_13">
      <!-- 800 -->
      <g transform="translate(27.240625 102.555789)scale(0.1 -0.1)">
       <defs>
        <path d="M 2034 2216 
Q 1584 2216 1326 1975 
Q 1069 1734 1069 1313 
Q 1069 891 1326 650 
Q 1584 409 2034 409 
Q 2484 409 2743 651 
Q 3003 894 3003 1313 
Q 3003 1734 2745 1975 
Q 2488 2216 2034 2216 
z
M 1403 2484 
Q 997 2584 770 2862 
Q 544 3141 544 3541 
Q 544 4100 942 4425 
Q 1341 4750 2034 4750 
Q 2731 4750 3128 4425 
Q 3525 4100 3525 3541 
Q 3525 3141 3298 2862 
Q 3072 2584 2669 2484 
Q 3125 2378 3379 2068 
Q 3634 1759 3634 1313 
Q 3634 634 3220 271 
Q 2806 -91 2034 -91 
Q 1263 -91 848 271 
Q 434 634 434 1313 
Q 434 1759 690 2068 
Q 947 2378 1403 2484 
z
M 1172 3481 
Q 1172 3119 1398 2916 
Q 1625 2713 2034 2713 
Q 2441 2713 2670 2916 
Q 2900 3119 2900 3481 
Q 2900 3844 2670 4047 
Q 2441 4250 2034 4250 
Q 1625 4250 1398 4047 
Q 1172 3844 1172 3481 
z
" id="DejaVuSans-38" transform="scale(0.015625)"/>
       </defs>
       <use xlink:href="#DejaVuSans-38"/>
       <use x="63.623047" xlink:href="#DejaVuSans-30"/>
       <use x="127.246094" xlink:href="#DejaVuSans-30"/>
      </g>
     </g>
    </g>
    <g id="ytick_4">
     <g id="line2d_13">
      <g>
       <use style="stroke:#000000;stroke-width:0.8;" x="53.328125" xlink:href="#md77da1170e" y="50.899781"/>
      </g>
     </g>
     <g id="text_14">
      <!-- 1000 -->
      <g transform="translate(20.878125 54.699)scale(0.1 -0.1)">
       <use xlink:href="#DejaVuSans-31"/>
       <use x="63.623047" xlink:href="#DejaVuSans-30"/>
       <use x="127.246094" xlink:href="#DejaVuSans-30"/>
       <use x="190.869141" xlink:href="#DejaVuSans-30"/>
      </g>
     </g>
    </g>
    <g id="text_15">
     <!-- Volume-Weighted Average Price (VWAP) -->
     <g transform="translate(14.798438 230.831875)rotate(-90)scale(0.1 -0.1)">
      <defs>
       <path d="M 1831 0 
L 50 4666 
L 709 4666 
L 2188 738 
L 3669 4666 
L 4325 4666 
L 2547 0 
L 1831 0 
z
" id="DejaVuSans-56" transform="scale(0.015625)"/>
       <path d="M 1959 3097 
Q 1497 3097 1228 2736 
Q 959 2375 959 1747 
Q 959 1119 1226 758 
Q 1494 397 1959 397 
Q 2419 397 2687 759 
Q 2956 1122 2956 1747 
Q 2956 2369 2687 2733 
Q 2419 3097 1959 3097 
z
M 1959 3584 
Q 2709 3584 3137 3096 
Q 3566 2609 3566 1747 
Q 3566 888 3137 398 
Q 2709 -91 1959 -91 
Q 1206 -91 779 398 
Q 353 888 353 1747 
Q 353 2609 779 3096 
Q 1206 3584 1959 3584 
z
" id="DejaVuSans-6f" transform="scale(0.015625)"/>
       <path d="M 313 2009 
L 1997 2009 
L 1997 1497 
L 313 1497 
L 313 2009 
z
" id="DejaVuSans-2d" transform="scale(0.015625)"/>
       <path d="M 213 4666 
L 850 4666 
L 1831 722 
L 2809 4666 
L 3519 4666 
L 4500 722 
L 5478 4666 
L 6119 4666 
L 4947 0 
L 4153 0 
L 3169 4050 
L 2175 0 
L 1381 0 
L 213 4666 
z
" id="DejaVuSans-57" transform="scale(0.015625)"/>
       <path d="M 2906 1791 
Q 2906 2416 2648 2759 
Q 2391 3103 1925 3103 
Q 1463 3103 1205 2759 
Q 947 2416 947 1791 
Q 947 1169 1205 825 
Q 1463 481 1925 481 
Q 2391 481 2648 825 
Q 2906 1169 2906 1791 
z
M 3481 434 
Q 3481 -459 3084 -895 
Q 2688 -1331 1869 -1331 
Q 1566 -1331 1297 -1286 
Q 1028 -1241 775 -1147 
L 775 -588 
Q 1028 -725 1275 -790 
Q 1522 -856 1778 -856 
Q 2344 -856 2625 -561 
Q 2906 -266 2906 331 
L 2906 616 
Q 2728 306 2450 153 
Q 2172 0 1784 0 
Q 1141 0 747 490 
Q 353 981 353 1791 
Q 353 2603 747 3093 
Q 1141 3584 1784 3584 
Q 2172 3584 2450 3431 
Q 2728 3278 2906 2969 
L 2906 3500 
L 3481 3500 
L 3481 434 
z
" id="DejaVuSans-67" transform="scale(0.015625)"/>
       <path d="M 3513 2113 
L 3513 0 
L 2938 0 
L 2938 2094 
Q 2938 2591 2744 2837 
Q 2550 3084 2163 3084 
Q 1697 3084 1428 2787 
Q 1159 2491 1159 1978 
L 1159 0 
L 581 0 
L 581 4863 
L 1159 4863 
L 1159 2956 
Q 1366 3272 1645 3428 
Q 1925 3584 2291 3584 
Q 2894 3584 3203 3211 
Q 3513 2838 3513 2113 
z
" id="DejaVuSans-68" transform="scale(0.015625)"/>
       <path d="M 1172 4494 
L 1172 3500 
L 2356 3500 
L 2356 3053 
L 1172 3053 
L 1172 1153 
Q 1172 725 1289 603 
Q 1406 481 1766 481 
L 2356 481 
L 2356 0 
L 1766 0 
Q 1100 0 847 248 
Q 594 497 594 1153 
L 594 3053 
L 172 3053 
L 172 3500 
L 594 3500 
L 594 4494 
L 1172 4494 
z
" id="DejaVuSans-74" transform="scale(0.015625)"/>
       <path d="M 2188 4044 
L 1331 1722 
L 3047 1722 
L 2188 4044 
z
M 1831 4666 
L 2547 4666 
L 4325 0 
L 3669 0 
L 3244 1197 
L 1141 1197 
L 716 0 
L 50 0 
L 1831 4666 
z
" id="DejaVuSans-41" transform="scale(0.015625)"/>
       <path d="M 2631 2963 
Q 2534 3019 2420 3045 
Q 2306 3072 2169 3072 
Q 1681 3072 1420 2755 
Q 1159 2438 1159 1844 
L 1159 0 
L 581 0 
L 581 3500 
L 1159 3500 
L 1159 2956 
Q 1341 3275 1631 3429 
Q 1922 3584 2338 3584 
Q 2397 3584 2469 3576 
Q 2541 3569 2628 3553 
L 2631 2963 
z
" id="DejaVuSans-72" transform="scale(0.015625)"/>
       <path d="M 1259 4147 
L 1259 2394 
L 2053 2394 
Q 2494 2394 2734 2622 
Q 2975 2850 2975 3272 
Q 2975 3691 2734 3919 
Q 2494 4147 2053 4147 
L 1259 4147 
z
M 628 4666 
L 2053 4666 
Q 2838 4666 3239 4311 
Q 3641 3956 3641 3272 
Q 3641 2581 3239 2228 
Q 2838 1875 2053 1875 
L 1259 1875 
L 1259 0 
L 628 0 
L 628 4666 
z
" id="DejaVuSans-50" transform="scale(0.015625)"/>
       <path d="M 3122 3366 
L 3122 2828 
Q 2878 2963 2633 3030 
Q 2388 3097 2138 3097 
Q 1578 3097 1268 2742 
Q 959 2388 959 1747 
Q 959 1106 1268 751 
Q 1578 397 2138 397 
Q 2388 397 2633 464 
Q 2878 531 3122 666 
L 3122 134 
Q 2881 22 2623 -34 
Q 2366 -91 2075 -91 
Q 1284 -91 818 406 
Q 353 903 353 1747 
Q 353 2603 823 3093 
Q 1294 3584 2113 3584 
Q 2378 3584 2631 3529 
Q 2884 3475 3122 3366 
z
" id="DejaVuSans-63" transform="scale(0.015625)"/>
      </defs>
      <use xlink:href="#DejaVuSans-56"/>
      <use x="60.658203" xlink:href="#DejaVuSans-6f"/>
      <use x="121.839844" xlink:href="#DejaVuSans-6c"/>
      <use x="149.623047" xlink:href="#DejaVuSans-75"/>
      <use x="213.001953" xlink:href="#DejaVuSans-6d"/>
      <use x="310.414062" xlink:href="#DejaVuSans-65"/>
      <use x="371.9375" xlink:href="#DejaVuSans-2d"/>
      <use x="404.021484" xlink:href="#DejaVuSans-57"/>
      <use x="497.023438" xlink:href="#DejaVuSans-65"/>
      <use x="558.546875" xlink:href="#DejaVuSans-69"/>
      <use x="586.330078" xlink:href="#DejaVuSans-67"/>
      <use x="649.806641" xlink:href="#DejaVuSans-68"/>
      <use x="713.185547" xlink:href="#DejaVuSans-74"/>
      <use x="752.394531" xlink:href="#DejaVuSans-65"/>
      <use x="813.917969" xlink:href="#DejaVuSans-64"/>
      <use x="877.394531" xlink:href="#DejaVuSans-20"/>
      <use x="909.181641" xlink:href="#DejaVuSans-41"/>
      <use x="971.714844" xlink:href="#DejaVuSans-76"/>
      <use x="1030.894531" xlink:href="#DejaVuSans-65"/>
      <use x="1092.417969" xlink:href="#DejaVuSans-72"/>
      <use x="1133.53125" xlink:href="#DejaVuSans-61"/>
      <use x="1194.810547" xlink:href="#DejaVuSans-67"/>
      <use x="1258.287109" xlink:href="#DejaVuSans-65"/>
      <use x="1319.810547" xlink:href="#DejaVuSans-20"/>
      <use x="1351.597656" xlink:href="#DejaVuSans-50"/>
      <use x="1410.150391" xlink:href="#DejaVuSans-72"/>
      <use x="1451.263672" xlink:href="#DejaVuSans-69"/>
      <use x="1479.046875" xlink:href="#DejaVuSans-63"/>
      <use x="1534.027344" xlink:href="#DejaVuSans-65"/>
      <use x="1595.550781" xlink:href="#DejaVuSans-20"/>
      <use x="1627.337891" xlink:href="#DejaVuSans-28"/>
      <use x="1666.351562" xlink:href="#DejaVuSans-56"/>
      <use x="1734.759766" xlink:href="#DejaVuSans-57"/>
      <use x="1828.136719" xlink:href="#DejaVuSans-41"/>
      <use x="1896.544922" xlink:href="#DejaVuSans-50"/>
      <use x="1956.847656" xlink:href="#DejaVuSans-29"/>
     </g>
    </g>
   </g>
   <g id="line2d_14">
    <path clip-path="url(#p821425c34d)" d="M 68.546307 202.935138 
L 70.068125 202.243458 
L 71.589943 205.152414 
L 73.111761 206.131917 
L 74.63358 204.540608 
L 76.155398 203.397437 
L 77.677216 201.066463 
L 79.199034 199.640135 
L 80.720852 199.054332 
L 82.24267 198.888043 
L 83.764489 197.487639 
L 85.286307 194.611909 
L 86.808125 196.900959 
L 88.329943 200.437751 
L 89.851761 200.685433 
L 91.37358 199.632176 
L 94.417216 198.179341 
L 95.939034 198.884611 
L 97.460852 200.901291 
L 98.98267 201.896209 
L 100.504489 202.626088 
L 102.026307 206.442925 
L 103.548125 208.405436 
L 105.069943 205.889486 
L 106.591761 204.307567 
L 108.11358 203.503942 
L 109.635398 201.814576 
L 111.157216 201.037772 
L 112.679034 199.958475 
L 114.200852 197.090821 
L 115.72267 194.850002 
L 117.244489 195.22936 
L 118.766307 194.465584 
L 120.288125 188.360148 
L 121.809943 185.100846 
L 123.331761 184.967841 
L 124.85358 183.878898 
L 126.375398 181.85696 
L 127.897216 178.581768 
L 129.419034 176.674259 
L 130.940852 175.600029 
L 132.46267 168.543278 
L 133.984489 159.562748 
L 135.506307 146.527512 
L 137.028125 126.237712 
L 138.549943 130.66353 
L 140.071761 138.997881 
L 141.59358 139.8581 
L 143.115398 138.216105 
L 144.637216 138.444771 
L 146.159034 151.218669 
L 147.680852 159.530822 
L 149.20267 160.381883 
L 150.724489 158.426076 
L 152.246307 151.466687 
L 153.768125 146.080315 
L 155.289943 144.10948 
L 156.811761 139.638679 
L 158.33358 130.91736 
L 159.855398 127.072767 
L 161.377216 125.772741 
L 162.899034 127.150215 
L 164.420852 113.440548 
L 165.94267 83.277554 
L 167.464489 68.655631 
L 168.986307 65.635358 
L 170.508125 67.020821 
L 172.029943 62.552299 
L 173.551761 60.880057 
L 175.07358 57.011102 
L 176.595398 70.926945 
L 178.117216 82.69354 
L 179.639034 84.360597 
L 181.160852 90.811829 
L 182.68267 104.572511 
L 184.204489 110.852882 
L 185.726307 129.086526 
L 187.248125 153.971033 
L 188.769943 164.817019 
L 190.291761 173.121234 
L 191.81358 186.428636 
L 193.335398 189.206719 
L 194.857216 180.243144 
L 196.379034 170.605846 
L 197.900852 166.133023 
L 199.42267 169.580915 
L 200.944489 175.422874 
L 202.466307 178.209479 
L 203.988125 178.125093 
L 207.031761 174.037257 
L 208.55358 171.892793 
L 210.075398 173.964993 
L 211.597216 177.501741 
L 213.119034 178.36028 
L 214.640852 179.58672 
L 216.16267 186.07775 
L 217.684489 189.799357 
L 219.206307 187.498337 
L 220.728125 187.700021 
L 222.249943 190.88627 
L 223.771761 192.012259 
L 225.29358 188.602229 
L 226.815398 184.494889 
L 228.337216 184.776453 
L 229.859034 186.517133 
L 234.424489 194.795643 
L 235.946307 200.898187 
L 237.468125 210.154068 
L 238.989943 212.970116 
L 240.511761 209.576086 
L 242.03358 208.733393 
L 243.555398 211.541218 
L 245.077216 212.323893 
L 246.599034 209.327645 
L 248.120852 204.280716 
L 249.64267 201.714526 
L 251.164489 203.335315 
L 252.686307 205.34914 
L 254.208125 204.530151 
L 255.729943 201.892039 
L 257.251761 201.50229 
L 258.77358 202.070421 
L 260.295398 201.445799 
L 261.817216 202.981976 
L 263.339034 205.038403 
L 264.860852 204.793028 
L 266.38267 204.272655 
L 267.904489 204.696572 
L 269.426307 206.531831 
L 270.948125 209.01411 
L 272.469943 210.772462 
L 273.991761 211.960885 
L 275.51358 213.518217 
L 277.035398 213.936154 
L 278.557216 214.999181 
L 280.079034 219.097138 
L 281.600852 220.255454 
L 283.12267 217.118963 
L 284.644489 214.532136 
L 286.166307 212.639443 
L 287.688125 212.130673 
L 290.731761 206.967359 
L 292.25358 205.313454 
L 295.297216 200.528775 
L 296.819034 197.990158 
L 298.340852 196.70595 
L 299.86267 196.660624 
L 301.384489 197.485397 
L 302.906307 198.067031 
L 304.428125 198.126851 
L 305.949943 197.505435 
L 307.471761 194.962364 
L 308.99358 193.299746 
L 310.515398 193.098318 
L 312.037216 191.919533 
L 313.559034 188.851502 
L 315.080852 186.671074 
L 316.60267 184.879607 
L 318.124489 181.250674 
L 319.646307 176.877213 
L 321.168125 173.727717 
L 322.689943 174.601518 
L 324.211761 178.578592 
L 325.73358 181.34597 
L 327.255398 179.60564 
L 328.777216 175.782421 
L 330.299034 174.937902 
L 331.820852 175.755373 
L 333.34267 176.902655 
L 334.864489 179.438876 
L 336.386307 182.696725 
L 337.908125 184.849324 
L 339.429943 183.831235 
L 340.951761 181.081471 
L 342.47358 179.811852 
L 343.995398 181.173845 
L 345.517216 182.00403 
L 347.039034 179.810684 
L 348.560852 177.17818 
L 351.604489 170.603955 
L 353.126307 165.663159 
L 354.648125 166.891855 
L 356.169943 174.629041 
L 357.691761 177.628627 
L 359.21358 178.841535 
L 360.735398 180.480544 
L 362.257216 181.017604 
L 363.779034 183.491741 
L 365.300852 184.360014 
L 366.82267 181.990075 
L 368.344489 181.138064 
L 369.866307 182.136129 
L 372.909943 183.364826 
L 372.909943 183.364826 
" style="fill:none;stroke:#1f77b4;stroke-linecap:square;stroke-width:1.5;"/>
   </g>
   <g id="line2d_15">
    <path clip-path="url(#p821425c34d)" d="M 68.546307 208.692043 
L 70.068125 213.270579 
L 71.589943 212.161097 
L 73.111761 209.649682 
L 74.63358 208.491077 
L 76.155398 204.435579 
L 77.677216 203.638803 
L 79.199034 203.128438 
L 80.720852 204.204212 
L 82.24267 199.250564 
L 83.764489 197.104081 
L 85.286307 204.508524 
L 86.808125 207.045253 
L 88.329943 206.76295 
L 89.851761 204.999062 
L 91.37358 204.903049 
L 92.895398 203.592344 
L 94.417216 206.45006 
L 95.939034 207.248015 
L 97.460852 207.743827 
L 98.98267 208.836434 
L 100.504489 216.466441 
L 102.026307 213.723304 
L 103.548125 211.436291 
L 105.069943 211.600684 
L 106.591761 209.122346 
L 108.11358 207.00782 
L 109.635398 206.701597 
L 111.157216 203.443741 
L 112.679034 198.673616 
L 114.200852 198.190331 
L 115.72267 201.747698 
L 117.244489 194.120211 
L 118.766307 184.234338 
L 120.288125 185.748865 
L 121.809943 187.827362 
L 123.331761 186.405415 
L 124.85358 182.524312 
L 126.375398 177.019736 
L 127.897216 179.061809 
L 129.419034 173.471705 
L 130.940852 156.161764 
L 132.46267 151.957575 
L 135.506307 102.90546 
L 137.028125 135.392925 
L 138.549943 129.150024 
L 140.071761 136.260693 
L 141.59358 129.489802 
L 143.115398 135.193323 
L 144.637216 157.938064 
L 146.159034 158.498757 
L 147.680852 161.676475 
L 150.724489 144.7181 
L 152.246307 140.782597 
L 153.768125 141.483067 
L 155.289943 132.017815 
L 156.811761 120.476064 
L 158.33358 124.006817 
L 159.855398 118.534635 
L 161.377216 124.148863 
L 164.420852 46.985362 
L 165.94267 49.897136 
L 167.464489 50.310674 
L 168.986307 55.957845 
L 170.508125 39.654819 
L 172.029943 48.288503 
L 173.551761 32.201761 
L 175.07358 74.364396 
L 176.595398 68.112401 
L 178.117216 76.900595 
L 179.639034 83.945423 
L 181.160852 105.548687 
L 182.68267 100.64751 
L 184.204489 144.491536 
L 185.726307 159.286283 
L 187.248125 164.564958 
L 190.291761 198.316098 
L 191.81358 186.596469 
L 193.335398 172.804458 
L 194.857216 166.306731 
L 196.379034 165.32103 
L 197.900852 174.979193 
L 199.42267 180.771426 
L 200.944489 181.85057 
L 202.466307 178.927213 
L 203.988125 177.225714 
L 205.509943 175.710035 
L 207.031761 172.761248 
L 208.55358 180.016078 
L 210.075398 181.544387 
L 211.597216 182.846084 
L 213.119034 183.951897 
L 214.640852 196.103796 
L 216.16267 192.814622 
L 217.684489 190.751002 
L 219.206307 194.230668 
L 220.728125 198.659082 
L 222.249943 196.915593 
L 223.771761 190.066253 
L 225.29358 187.212308 
L 226.815398 191.276553 
L 228.337216 192.175644 
L 229.859034 197.041713 
L 231.380852 199.074866 
L 232.90267 203.166747 
L 234.424489 211.212312 
L 235.946307 221.665997 
L 237.468125 217.044411 
L 238.989943 214.400612 
L 240.511761 216.500983 
L 242.03358 221.067965 
L 243.555398 218.700757 
L 245.077216 213.473735 
L 246.599034 206.716012 
L 248.120852 208.473752 
L 249.64267 211.306399 
L 251.164489 213.577548 
L 252.686307 210.818999 
L 254.208125 207.386521 
L 255.729943 209.272545 
L 257.251761 209.274809 
L 258.77358 207.464396 
L 260.295398 212.529166 
L 261.817216 212.731908 
L 263.339034 212.263975 
L 264.860852 212.07209 
L 266.38267 212.90945 
L 267.904489 215.998989 
L 269.426307 218.035682 
L 270.948125 219.417472 
L 272.469943 220.543402 
L 273.991761 222.729202 
L 275.51358 221.62228 
L 277.035398 224.567496 
L 278.557216 229.874489 
L 281.600852 223.068135 
L 283.12267 221.861684 
L 284.644489 219.160664 
L 286.166307 220.606502 
L 287.688125 211.621932 
L 289.209943 213.917828 
L 290.731761 210.282631 
L 292.25358 208.322264 
L 293.775398 205.094737 
L 295.297216 203.124347 
L 296.819034 202.343497 
L 298.340852 202.929898 
L 299.86267 204.880121 
L 301.384489 204.354246 
L 302.906307 204.31864 
L 304.428125 202.625236 
L 305.949943 197.743136 
L 307.471761 198.459549 
L 308.99358 197.987826 
L 310.515398 195.433929 
L 312.037216 191.139481 
L 313.559034 190.209638 
L 315.080852 187.47804 
L 318.124489 176.705286 
L 319.646307 175.968408 
L 321.168125 179.907892 
L 322.689943 186.000414 
L 324.211761 186.534198 
L 325.73358 180.803449 
L 327.255398 177.679656 
L 328.777216 179.881629 
L 330.299034 178.649088 
L 333.34267 185.421448 
L 334.864489 189.3417 
L 336.386307 190.282163 
L 337.908125 187.259115 
L 339.429943 180.660578 
L 340.951761 184.736084 
L 342.47358 186.619832 
L 343.995398 185.861516 
L 345.517216 181.322387 
L 348.560852 173.264773 
L 350.08267 171.444622 
L 351.604489 161.412687 
L 353.126307 170.993441 
L 354.648125 181.622101 
L 356.169943 181.181556 
L 357.691761 184.224203 
L 359.21358 186.371869 
L 360.735398 185.606817 
L 362.257216 189.743764 
L 363.779034 188.284153 
L 365.300852 185.380401 
L 366.82267 185.774898 
L 368.344489 187.613568 
L 369.866307 187.765228 
L 371.388125 188.844303 
L 372.909943 199.817161 
L 372.909943 199.817161 
" style="fill:none;stroke:#ff7f0e;stroke-linecap:square;stroke-width:1.5;"/>
   </g>
   <g id="patch_3">
    <path d="M 53.328125 239.758125 
L 53.328125 22.318125 
" style="fill:none;stroke:#000000;stroke-linecap:square;stroke-linejoin:miter;stroke-width:0.8;"/>
   </g>
   <g id="patch_4">
    <path d="M 388.128125 239.758125 
L 388.128125 22.318125 
" style="fill:none;stroke:#000000;stroke-linecap:square;stroke-linejoin:miter;stroke-width:0.8;"/>
   </g>
   <g id="patch_5">
    <path d="M 53.328125 239.758125 
L 388.128125 239.758125 
" style="fill:none;stroke:#000000;stroke-linecap:square;stroke-linejoin:miter;stroke-width:0.8;"/>
   </g>
   <g id="patch_6">
    <path d="M 53.328125 22.318125 
L 388.128125 22.318125 
" style="fill:none;stroke:#000000;stroke-linecap:square;stroke-linejoin:miter;stroke-width:0.8;"/>
   </g>
   <g id="text_16">
    <!-- Prediction of Bitcoin Cash -->
    <g transform="translate(144.05 16.318125)scale(0.12 -0.12)">
     <defs>
      <path d="M 3513 2113 
L 3513 0 
L 2938 0 
L 2938 2094 
Q 2938 2591 2744 2837 
Q 2550 3084 2163 3084 
Q 1697 3084 1428 2787 
Q 1159 2491 1159 1978 
L 1159 0 
L 581 0 
L 581 3500 
L 1159 3500 
L 1159 2956 
Q 1366 3272 1645 3428 
Q 1925 3584 2291 3584 
Q 2894 3584 3203 3211 
Q 3513 2838 3513 2113 
z
" id="DejaVuSans-6e" transform="scale(0.015625)"/>
      <path d="M 2375 4863 
L 2375 4384 
L 1825 4384 
Q 1516 4384 1395 4259 
Q 1275 4134 1275 3809 
L 1275 3500 
L 2222 3500 
L 2222 3053 
L 1275 3053 
L 1275 0 
L 697 0 
L 697 3053 
L 147 3053 
L 147 3500 
L 697 3500 
L 697 3744 
Q 697 4328 969 4595 
Q 1241 4863 1831 4863 
L 2375 4863 
z
" id="DejaVuSans-66" transform="scale(0.015625)"/>
      <path d="M 1259 2228 
L 1259 519 
L 2272 519 
Q 2781 519 3026 730 
Q 3272 941 3272 1375 
Q 3272 1813 3026 2020 
Q 2781 2228 2272 2228 
L 1259 2228 
z
M 1259 4147 
L 1259 2741 
L 2194 2741 
Q 2656 2741 2882 2914 
Q 3109 3088 3109 3444 
Q 3109 3797 2882 3972 
Q 2656 4147 2194 4147 
L 1259 4147 
z
M 628 4666 
L 2241 4666 
Q 2963 4666 3353 4366 
Q 3744 4066 3744 3513 
Q 3744 3084 3544 2831 
Q 3344 2578 2956 2516 
Q 3422 2416 3680 2098 
Q 3938 1781 3938 1306 
Q 3938 681 3513 340 
Q 3088 0 2303 0 
L 628 0 
L 628 4666 
z
" id="DejaVuSans-42" transform="scale(0.015625)"/>
      <path d="M 4122 4306 
L 4122 3641 
Q 3803 3938 3442 4084 
Q 3081 4231 2675 4231 
Q 1875 4231 1450 3742 
Q 1025 3253 1025 2328 
Q 1025 1406 1450 917 
Q 1875 428 2675 428 
Q 3081 428 3442 575 
Q 3803 722 4122 1019 
L 4122 359 
Q 3791 134 3420 21 
Q 3050 -91 2638 -91 
Q 1578 -91 968 557 
Q 359 1206 359 2328 
Q 359 3453 968 4101 
Q 1578 4750 2638 4750 
Q 3056 4750 3426 4639 
Q 3797 4528 4122 4306 
z
" id="DejaVuSans-43" transform="scale(0.015625)"/>
      <path d="M 2834 3397 
L 2834 2853 
Q 2591 2978 2328 3040 
Q 2066 3103 1784 3103 
Q 1356 3103 1142 2972 
Q 928 2841 928 2578 
Q 928 2378 1081 2264 
Q 1234 2150 1697 2047 
L 1894 2003 
Q 2506 1872 2764 1633 
Q 3022 1394 3022 966 
Q 3022 478 2636 193 
Q 2250 -91 1575 -91 
Q 1294 -91 989 -36 
Q 684 19 347 128 
L 347 722 
Q 666 556 975 473 
Q 1284 391 1588 391 
Q 1994 391 2212 530 
Q 2431 669 2431 922 
Q 2431 1156 2273 1281 
Q 2116 1406 1581 1522 
L 1381 1569 
Q 847 1681 609 1914 
Q 372 2147 372 2553 
Q 372 3047 722 3315 
Q 1072 3584 1716 3584 
Q 2034 3584 2315 3537 
Q 2597 3491 2834 3397 
z
" id="DejaVuSans-73" transform="scale(0.015625)"/>
     </defs>
     <use xlink:href="#DejaVuSans-50"/>
     <use x="58.552734" xlink:href="#DejaVuSans-72"/>
     <use x="97.416016" xlink:href="#DejaVuSans-65"/>
     <use x="158.939453" xlink:href="#DejaVuSans-64"/>
     <use x="222.416016" xlink:href="#DejaVuSans-69"/>
     <use x="250.199219" xlink:href="#DejaVuSans-63"/>
     <use x="305.179688" xlink:href="#DejaVuSans-74"/>
     <use x="344.388672" xlink:href="#DejaVuSans-69"/>
     <use x="372.171875" xlink:href="#DejaVuSans-6f"/>
     <use x="433.353516" xlink:href="#DejaVuSans-6e"/>
     <use x="496.732422" xlink:href="#DejaVuSans-20"/>
     <use x="528.519531" xlink:href="#DejaVuSans-6f"/>
     <use x="589.701172" xlink:href="#DejaVuSans-66"/>
     <use x="624.90625" xlink:href="#DejaVuSans-20"/>
     <use x="656.693359" xlink:href="#DejaVuSans-42"/>
     <use x="725.296875" xlink:href="#DejaVuSans-69"/>
     <use x="753.080078" xlink:href="#DejaVuSans-74"/>
     <use x="792.289062" xlink:href="#DejaVuSans-63"/>
     <use x="847.269531" xlink:href="#DejaVuSans-6f"/>
     <use x="908.451172" xlink:href="#DejaVuSans-69"/>
     <use x="936.234375" xlink:href="#DejaVuSans-6e"/>
     <use x="999.613281" xlink:href="#DejaVuSans-20"/>
     <use x="1031.400391" xlink:href="#DejaVuSans-43"/>
     <use x="1101.224609" xlink:href="#DejaVuSans-61"/>
     <use x="1162.503906" xlink:href="#DejaVuSans-73"/>
     <use x="1214.603516" xlink:href="#DejaVuSans-68"/>
    </g>
   </g>
   <g id="legend_1">
    <g id="patch_7">
     <path d="M 299.454688 59.674375 
L 381.128125 59.674375 
Q 383.128125 59.674375 383.128125 57.674375 
L 383.128125 29.318125 
Q 383.128125 27.318125 381.128125 27.318125 
L 299.454688 27.318125 
Q 297.454688 27.318125 297.454688 29.318125 
L 297.454688 57.674375 
Q 297.454688 59.674375 299.454688 59.674375 
z
" style="fill:#ffffff;opacity:0.8;stroke:#cccccc;stroke-linejoin:miter;"/>
    </g>
    <g id="line2d_16">
     <path d="M 301.454688 35.416562 
L 321.454688 35.416562 
" style="fill:none;stroke:#1f77b4;stroke-linecap:square;stroke-width:1.5;"/>
    </g>
    <g id="line2d_17"/>
    <g id="text_17">
     <!-- Prediction -->
     <g transform="translate(329.454688 38.916562)scale(0.1 -0.1)">
      <use xlink:href="#DejaVuSans-50"/>
      <use x="58.552734" xlink:href="#DejaVuSans-72"/>
      <use x="97.416016" xlink:href="#DejaVuSans-65"/>
      <use x="158.939453" xlink:href="#DejaVuSans-64"/>
      <use x="222.416016" xlink:href="#DejaVuSans-69"/>
      <use x="250.199219" xlink:href="#DejaVuSans-63"/>
      <use x="305.179688" xlink:href="#DejaVuSans-74"/>
      <use x="344.388672" xlink:href="#DejaVuSans-69"/>
      <use x="372.171875" xlink:href="#DejaVuSans-6f"/>
      <use x="433.353516" xlink:href="#DejaVuSans-6e"/>
     </g>
    </g>
    <g id="line2d_18">
     <path d="M 301.454688 50.094687 
L 321.454688 50.094687 
" style="fill:none;stroke:#ff7f0e;stroke-linecap:square;stroke-width:1.5;"/>
    </g>
    <g id="line2d_19"/>
    <g id="text_18">
     <!-- True Price -->
     <g transform="translate(329.454688 53.594687)scale(0.1 -0.1)">
      <use xlink:href="#DejaVuSans-54"/>
      <use x="46.333984" xlink:href="#DejaVuSans-72"/>
      <use x="87.447266" xlink:href="#DejaVuSans-75"/>
      <use x="150.826172" xlink:href="#DejaVuSans-65"/>
      <use x="212.349609" xlink:href="#DejaVuSans-20"/>
      <use x="244.136719" xlink:href="#DejaVuSans-50"/>
      <use x="302.689453" xlink:href="#DejaVuSans-72"/>
      <use x="343.802734" xlink:href="#DejaVuSans-69"/>
      <use x="371.585938" xlink:href="#DejaVuSans-63"/>
      <use x="426.566406" xlink:href="#DejaVuSans-65"/>
     </g>
    </g>
   </g>
  </g>
 </g>
 <defs>
  <clipPath id="p821425c34d">
   <rect height="217.44" width="334.8" x="53.328125" y="22.318125"/>
  </clipPath>
 </defs>
</svg>
